<svg height="28" viewBox="0 0 224 28" width="224" xmlns="http://www.w3.org/2000/svg"><path d="m153.667969 10053v5.6463l.217162.0435c1.409658-2.4659 4.402515-5.3867 9.087152-5.3867 4.055434 0 6.940184 2.0119 7.720641 5.3432l.17354.0435c1.475091-2.4659 4.446137-5.3867 9.130774-5.3867 4.793217 0 7.894655 2.9208 7.894655 7.5929v10.7292c0 1.2764.021337 2.3798.108107 3.3748h-9.238881c.086771-.9733.108582-2.0331.108582-3.2665v-10.4483c0-2.1414-.889512-3.7853-3.274979-3.7853-1.908467 0-3.643869 1.1464-4.728258 2.942v11.1833c0 1.2764.021811 2.3798.108581 3.3748h-9.23888c.08677-.9733.108107-2.0331.108107-3.2665v-10.4483c0-2.1414-.889038-3.7853-3.274504-3.7853-1.908942 0-3.665681 1.1464-4.684637 2.942v11.2486c0 1.2546.021337 2.3362.108107 3.3095h-9.282503c.064959-.9515.108582-2.0331.108582-3.3095v-6.3599c0-4.1533-.84589-6.576-2.819317-8.9341v-.1295zm145.606948-6v6.6902h6.725083v1.2621h-6.725083v19.4273c0 .2218 0 .4209.021888.6204h-9.118878c-.021887-.1327-.021887-.2654-.021887-.3986v-19.6491h-3.15604v-.5095l11.643995-7.4428zm-90.263665 6c8.737728 0 15.988748 6.8875 15.988748 14.8276 0 2.5881-.778109 5.0447-2.104796 7.1724h-8.440187c.457564-2.0184.663593-4.4529.663593-7.1724 0-8.1156-1.898767-13.753-6.107358-13.753-4.300105 0-6.129862 5.6374-6.129862 13.753 0 2.7195.205528 5.154.663093 7.1724h-8.417184c-1.34969-2.1277-2.127299-4.5843-2.127299-7.1724 0-7.9401 7.25052-14.8276 16.011252-14.8276zm65.978241 0c2.699468 0 5.33156.3954 7.243663.9672l.764743 7.1424-.51737.1322c-3.689453-4.9889-6.141056-7.2088-9.133142-7.2088-2.384227 0-4.273707 1.429-4.273707 3.6484 0 3.2082 3.801583 4.3513 7.670541 5.9556 4.094202 1.7591 8.255779 4.1101 8.255779 9.934 0 .5055-.022623.9894-.112621 1.429h-7.580543c-1.237359-1.2973-3.352081-2.2198-5.758931-3.2529-4.048956-1.7802-8.547905-4-8.547905-9.9999 0-6.2852 5.488443-8.7472 11.989493-8.7472zm45.942254 0c7.898578 0 12.195378 6.3169 12.065388 12.1298l-16.79628-.0441c.173636 5.4614 1.931354 8.4882 4.49226 9.9143h-12.260848c-.932705-1.9958-1.432267-4.277-1.432267-6.7341 0-8.949 6.097689-15.2659 13.931747-15.2659zm-80.846452 0v5.6463l.22493.0435c1.594642-2.3585 4.627261-5.3867 9.816846-5.3867 5.143912 0 8.760464 3.0282 8.760464 7.809v10.5131c0 1.2764.022591 2.3798.112465 3.3748h-9.614508c.089873-.9733.112464-2.0331.112464-3.2665v-10.0586c0-2.358-1.235639-4.175-4.04382-4.175-2.156474 0-4.020737 1.2547-5.143911 2.7685v11.4221c0 1.2546.022591 2.3362.112464 3.3095h-9.569817c.067283-.9515.112465-2.0331.112465-3.3095l-.045182-6.3599c0-4.1533-.830963-6.576-2.920155-8.9341v-.1295zm108.78445 0v6.8144c2.400525-2.4223 5.197286-6.857 10.130255-6.5113l-1.035124 9.4311h-.286465c-1.43136-1.903-4.514586-3.309-5.945946-3.309-.858912 0-1.849743.6706-2.642696 1.6226v10.6422c0 1.2551.022147 2.3367.110253 3.31h-9.425408c.065959-.9515.088106-2.0331.088106-3.31v-6.3594c0-4.1533-.792953-6.576-2.86272-8.9341v-.1295zm-28.285272 1.0089c-2.929529 0-4.383618 4.7383-4.383618 9.9364l8.007694-.1098v-2.1718c0-5.3736-1.410444-7.6548-3.624076-7.6548zm43.410511-1.0089c1.104423 0 2.005016.9019 2.005016 2.0023 0 1.0958-.900593 1.9977-2.005016 1.9977-1.106247 0-1.994984-.9019-1.994984-1.9977 0-1.1004.888737-2.0023 1.994984-2.0023zm0 .4257c-.861833 0-1.534884.6911-1.534884 1.5766 0 .8809.673051 1.572 1.534884 1.572s1.53306-.6911 1.53306-1.572c0-.8855-.671227-1.5766-1.53306-1.5766zm.010488.5071c.552212 0 .867761.3412.953944.681l-.4943.1677c-.047423-.1677-.172366-.3399-.449156-.3399-.275422 0-.515276.1986-.515276.5666 0 .3621.239854.5724.521204.5724s.422708-.1899.465572-.3457l.482444.1617c-.092111.3353-.406293.6811-.948016.6811-.597355 0-1.067488-.448-1.067488-1.0695 0-.6261.460101-1.0754 1.051072-1.0754z" fill="#1d3a2a" fill-rule="evenodd" transform="translate(-142 -10047)"/></svg>