<?xml version="1.0" encoding="utf-8"?>
<!-- Generator: Adobe Illustrator 27.0.1, SVG Export Plug-In . SVG Version: 6.00 Build 0)  -->
<svg version="1.1" id="Bruna_ikoner" xmlns="http://www.w3.org/2000/svg" xmlns:xlink="http://www.w3.org/1999/xlink" x="0px"
	 y="0px" viewBox="0 0 1320.7 1240.2" style="enable-background:new 0 0 1320.7 1240.2;" xml:space="preserve">
<style type="text/css">
	.st0{fill:#253429;}
</style>
<path class="st0" d="M1293.8,757.7c-36.5,43.3-89.3-2.1-130,34.7c-20.8,18.9-95.6,83.6-82,138.9c20.8,86.6,120.9,135.8,60,221.6
	c-8.5,14.7-18.8,28.4-30.6,40.7c-11.4,7.1-25.4,8.6-38.1,4.3c-1.2-0.4-2.4-0.9-3.5-1.5c-9.7-5.3-13.2-17.5-7.9-27.2
	c1.6-4.2,18.5-32.8,22.1-37.8c40.3-49.4-118.2-117.8-160.6-130c-81.1-23.2-90.9,19.2-133.4,65C750.3,1109,675,1256.2,635,1237.6
	c-92.5-43.1,385.1-399.9-220.8-250.7c-126.9,30.8,135.9,300.8-16.9,240.8c-106-81.2-102.7-295.3-201.1-270
	c-28.6,7.3-75.7,287.2-152.9,282.3c-57.4-17.9,42.6-454.7,42.6-456.3c26.1-129.1-76-268-86-430C4.1,247.5,23.3,142.5,5.3,40.3
	c-1.6-8.7,0.2-17.6,5.1-24.9c10.4-15.6,31.4-19.8,47-9.5C218.5,225-105.8,436,344.2,581.8l0,0C1100,710,1205.8,493.4,1183,448.6
	c67,58.1,13.3,88.5,43.3,120.8c19.2,28.8,56.9,47.5,64.2,90C1304.4,704.9,1348.7,713.6,1293.8,757.7z"/>
</svg>
