<?xml version="1.0" encoding="utf-8"?>
<!-- Generator: Adobe Illustrator 27.0.1, SVG Export Plug-In . SVG Version: 6.00 Build 0)  -->
<svg version="1.1" id="Bruna_ikoner" xmlns="http://www.w3.org/2000/svg" xmlns:xlink="http://www.w3.org/1999/xlink" x="0px"
	 y="0px" viewBox="0 0 1245 1161.2" style="enable-background:new 0 0 1245 1161.2;" xml:space="preserve">
<style type="text/css">
	.st0{fill:none;stroke:#000000;stroke-width:26.7488;stroke-linecap:round;stroke-linejoin:round;stroke-miterlimit:10;}
	.st1{stroke:#000000;stroke-width:0.8629;stroke-miterlimit:10;}
	.st2{font-family:'CircularStd-Bold';}
	.st3{font-size:178.7382px;}
	.st4{fill:none;stroke:#000000;stroke-width:18.8347;stroke-linecap:round;stroke-linejoin:round;stroke-miterlimit:10;}
	.st5{fill:none;stroke:#3E2B2F;stroke-width:35;stroke-linecap:round;stroke-linejoin:round;stroke-miterlimit:10;}
</style>
<g>
	<g>
		<g>
			<path class="st0" d="M491.8,743.6"/>
			<g>
				<path class="st0" d="M1025.4,477.7C972.8,306.1,813,181.4,624.2,181.4c-187.1,0-345.6,122.4-399.8,291.6"/>
				<path class="st0" d="M220.4,716c50,175.9,211.8,304.8,403.8,304.8c191.4,0,352.9-128.1,403.4-303.3"/>
				<path class="st0" d="M876.9,477.2C831,383.9,735.1,319.7,624.2,319.7c-111.8,0-208.4,65.2-253.8,159.7"/>
				<path class="st0" d="M368,717.8c44.3,97.2,142.3,164.7,256.1,164.7c114.4,0,212.8-68.2,256.8-166.2"/>
			</g>
		</g>
	</g>
	<text transform="matrix(1.0536 0 0 1 -8.8032 665.3115)" class="st1 st2 st3">GREAT TASTE</text>
	<line class="st4" x1="11.4" y1="485.5" x2="1233.3" y2="485.5"/>
	<line class="st4" x1="11.4" y1="711.9" x2="1233.3" y2="711.9"/>
</g>
<path class="st5" d="M2340.5,321.9"/>
</svg>
