<svg id="Bruna_ikoner" data-name="Bruna ikoner" xmlns="http://www.w3.org/2000/svg" width="1448.41" height="1352.36" viewBox="0 0 144.84 135.24">
  <defs>
    <style>
      .cls-1 {
        fill: #253429;
      }
    </style>
  </defs>
  <path class="cls-1" d="M143.19,29.76c-4.31-.68-4.9-1.3-9.07-2.56-.82-.25-1.66-.46-2.45-.78a2.78,2.78,0,0,1-1.79-2.15A7.41,7.41,0,0,0,126,19c-2.76-1.52-5.6-2.9-8.31-4.49-1.94-1.15-4.13-1.43-6.21-2.07a2.08,2.08,0,0,1-1.64-1.57c-.58-2.19-1.28-4.36-1.84-6.55A7.64,7.64,0,0,0,106.06.44c-.68-.65-.76-.59-1.11.25-.79,1.87-1.71,3.69-2.48,5.56s-3.37,6.93-3.63,9c0,0-4.42,12.08-4.65,12.81C88.45,46.21,87.93,48.4,76.61,57.28,70.42,63.41,50.3,76.87,31.55,71.13A18.54,18.54,0,0,1,18.71,53.51c0-15.79,12.84-30.72,12.84-30.72S13,24.45,5.11,39.41c-6.32,11.94-7.3,24.67,0,34.74C10.59,81.7,20,84.79,29.9,85.16c-2.1,1.86-11.75,38-12,47.34.15,3.06,4.1,2.82,6.21,2.64,3.22-.51,3.66-1.42,1.73-4.24-2.27-3,8.28-13.76,21.55-23.1-.61,4.12-1.14,8.18,2,11.64,3,4,6.45,7.44,9.74,11.11,3.29,5.33,22,5.09,9.23-.84-5-5.74-13.68-17.86-10.21-24.5,1-1.95,2.3-5.31,11.61-9.72a142.82,142.82,0,0,1,16.67-1.14,2.08,2.08,0,0,1,0,.25c-1.55,10.17,2.11,20.11,3.23,30.13.87,3.1,0,8,3,9.76,3.89,1.58,11.19.66,5-4.15a2.49,2.49,0,0,1-1.13-1.87c-.08-3.44-.37-36.69,4.91-31.23,3.45,2.5,11.36,4.87,14.19,24.65.58,4,2.16,11,3.39,11.67,9.31,4.78,2.94-9.6,3.37-12.12-.25-10.22-.92-48.13-1.28-62.63-.19-7.34-.38-8.68.5-11.67.92-2.23,2.08-3.73,3.66-4.29,2.76-1,8.69-1.06,11.57-1.45A3.52,3.52,0,0,0,140,38.94a1.46,1.46,0,0,1,.48-.65,7.51,7.51,0,0,0,2.39-3c.6-1.33,1.3-2.61,2-3.91v-.57A2.21,2.21,0,0,0,143.19,29.76Z"/>
</svg>
