<?xml version="1.0" encoding="utf-8"?>
<!-- Generator: Adobe Illustrator 27.0.1, SVG Export Plug-In . SVG Version: 6.00 Build 0)  -->
<svg version="1.1" id="Bruna_ikoner" xmlns="http://www.w3.org/2000/svg" xmlns:xlink="http://www.w3.org/1999/xlink" x="0px"
	 y="0px" viewBox="0 0 1245 1161.2" style="enable-background:new 0 0 1245 1161.2;" xml:space="preserve">
<style type="text/css">
	.st0{fill:none;stroke:#3E2B2F;stroke-width:35.0741;stroke-linecap:round;stroke-linejoin:round;stroke-miterlimit:10;}
</style>
<path class="st0" d="M857.4,786c20.3-27.7,60.2-56.6,53.3-89.8c-42.2-201.6-133-400-281.4-545.8C464.9-10.9,190.4,38.5,88.5,242.9
	c-62.9,126.2-37.8,286.9,60.4,387.9c46.5,47.9,101.8,84.2,161,112.9c138.4,67.1,283.4,112.6,438.3,121.5c18.6,1.1,41.3-9,62.4-25.8
	c0.8-0.6,0.8-1.8,0-2.5l0,0L857.4,786z"/>
<path class="st0" d="M795.9,850.5c41.1,28.9,126.7,116.4,130.5,166.6c3.2,43.5,30.4,77.6,69.1,86.9c43.5,10.5,86-8.1,107.1-48.4
	c10.2-19.4,19.2-37.5,39.6-50.2c45.1-28.1,59.2-72,41.3-115.8c-17.5-42.6-58.9-63.4-111.1-55.1c-14.9,2.4-31.5,8.5-43.8-1.6
	c-24-19.7-92.1-67.9-116.7-91.6"/>
<path class="st0" d="M333.1,213.9c0,0,182.9-97.1,319.4,180.6"/>
</svg>
