<svg height="272" viewBox="0 0 1328 272" width="1328" xmlns="http://www.w3.org/2000/svg"><path d="m-10.019412 400.771643.02427635.009355c.23516875.173615 11.85126745.430938 11.88530503.660358.04641489.319328.24754606.536347.55697863.753366.39916801.279024.38060206.291425.23207443 1.041691-.03403759.170515.01856595.319328.20731982.45264.96542962.669658 1.91848193 1.345518 2.8529683 2.002775.44248857-.167415-.03094326-.554948.58173323-.635556.73335519.809171 1.01803316 1.810559 2.0824812 2.50192.04950921.034103-.09901842.204618-.14233898.313127-.07116949.192217.02166028.34103.33109285.334829.25373471-.0031.4703375-.130211.54769565-.288325.1083014-.213919-.45486588-.45884-.03403759-.651057.92210908-.424737.95614668-1.212206 1.63070968-1.745453.5384126-.427837.9963728-.933182.7859587-1.581138-.0959241-.297626.0959241-.545648.5755446-.635556.6281481.564249.5786389 1.25251.8725998 1.869464.3125269.660358 1.2841452 1.072694 1.4295785 1.757854.0618865.294526.9035431.362732.3651304.827772-.4022623.347231.3527532.489843.6033936.706862.3372815.291426.7673927.514645 1.2872394.67896.2537348.080607.6374311.23252.578639.539447-.6683744-.080607-.7178836.505344-.9066375.517745-.9623353.068206-.7642984.319328-.4362999.722363l.1454513.178515c.2952691.35701.6321085.692219 1.2872215.615155.66528-.077507.6962233-.576651.8323736-.979686.1485276-.437138.1454333-.945583.8045247-1.280412.6807516.815371.5879219 1.736152 1.3460317 2.461616.4765261.45884.7209779 1.02619 1.2098813 1.475729.3713191.34103-.3496588.753366.3744134 1.072694.7395439.325528 1.2470133.880477 2.023689 1.209106-.0705506.091768-.2425951.104169-.4109759.105855l-.1632649.000658c-.1799632.002534-.3072294.021631-.2148122.166311.4517715.706862-.4517716.483642-.7921474.644856.0340376.071306.0495092.151913.1083014.207718.1083014.102309.275395.179816.3558475.288326 1.1789381 1.590439 2.0731982.908379 3.0819484-.062006.1392446-.133312.2970552-.285225.3249042-.440238.238263-1.305215 1.197504-2.470917 1.5131252-3.76063.0464149-.192217-.0897354-.465041.293961-.523946.4424886-.068206.7550155.201518.7766757.418537.0773582.827772.5476957 1.587339.8014304 2.381009.3001496.936282.7673928 1.860162 1.6740302 2.625929.826185.697562.8478452.68206 1.0025615 1.640044.018566.105409.1485277.207718.2568291.294526.2042255.155013.4301112.297626.646714.446439 1.2408246.846374 1.2315417.837073 2.4042911-.018602.7519212-.551848 1.5781061-1.057192 2.308367-1.621442.3929793-.300726.133056-.641756-.4517716-.69136-.4796205-.040304-.9747126.074406-1.4450501-.068206.027849-.151913.1825652-.155014.3465645-.186016 1.2377303-.232521 1.9958401-.855675 2.6549315-1.553236-.5291297-.731665.4208283-1.165703.9159204-1.540835 1.0710234-.811109 1.508798-1.767531 1.9158038-2.744547l.1878579-.451939.0964038-.226214c.3589418-.830873.3001496-1.776456 1.5347856-2.684835-.275395.709962.1918482 1.075794.3372815 1.519133.6157708 1.869463 1.3800693 3.714125 3.2026271 5.248759.1485276.127112.4362999.325529.3836964.390635-.4610545.582851.2846779.790569.6900346 1.091295.4734318.353431.9716183.691361 1.6833132.939382-.6188651.440239-1.3243714.117811-1.7730486.319328 1.4574274 1.729952 3.5770405 3.022765 6.2907641 4.083058-1.2408246.303827-2.147462-.486743-3.1252689.055805.2073198.46194.9747126.616954 1.3522203 1.106797h-2.8653456c1.3862579 1.506732 2.5064038 2.988662 4.7250353 3.900141-.3620361.083708-.7642984.089908-.8942601.22322-.275395.282125.142339.443339.4301113.57355.6033935.269724 1.21607.533247 1.8535011.759567 1.1789381.418536 1.1851267.406135 1.8782557-.483643.0526035-.068206.1856595-.105409.3032439-.167414.5136581.511545.7116949 1.103696.9530523 1.683447.1392447.33793.6621857.359632.8385623.195317.522941-.489843.931392-1.038591 1.3367487-1.578038.2073198-.275924.3744134-.564249-.2537347-.768867-.2135085-.068206.0154716-.291426.1825652-.415437l.1679001-.122318c.1897428-.144649.3416322-.301385.2838715-.525638-.170188-.660358.2692063-1.206006.7209779-1.751654.5105637-.616954.7859587-1.25871.7952417-1.996575.0061886-.601452.399168-1.190504.3496588-1.822959-.0154717-.186017.2506403-.362732.5910162-.403036.4177339 2.650733 1.739011 5.875015 3.3078342 7.115124-1.083014.244921-1.2377303.387533-.7271666.849474.9282977.849474 1.1572778 2.015176 2.7941761 2.579426l-.2838371.071738c-.9958126.255452-.9441151.310215-.2978961.994755-1.5347856.22322-1.3243714.204618-1.1170516 1.233908.0719431.359244.3705939.655272.6831691.94367l.2081113.191745c.4452588.415641.8209132.841138.4856945 1.444011-.0092829.018602.0649809.068206.1113958.093008.0900167.052423.1748166.107716.2580077.163642l.2483551.167442c.2925358.19235.6095635.365068 1.1057809.422282 1.0365991.124011 1.0335048.204618 1.197504-.601452.0402262-.192217.2723007-.257323.3527531-.396835.693129-1.190504 2.1598394-2.16709 2.1412734-3.562212 0-.102309.142339-.238721.3744134-.201518.1918482.027903.303244.117811.3187156.254223.123773 1.050992.655997 1.981073 1.7080678 2.768542.1052071.080607.1206787.22942.1454333.34723.0835468.399935.9282977.68206.4022623 1.178104.532224.387534 1.0644481.778168 1.6090494 1.178103.2073198-.151913.408451-.22942.4455829-.33483.4455829-1.224607 1.3460317-2.356206 1.5997664-3.618016.0433205-.22942.2444517-.465041.5074694-.468141.3836964 0 .6033935.251122.5910162.520845-.0556979 1.060293.9468637 1.931469 1.1387119 2.945258.0216603.10851.1825652.22322.3218098.294526.1299617.068206.3434702.139512.4796205.11161.2723007-.052705.2784893-.235621.2692064-.409236-.0154717-.238721-.2877723-.359632-.4858092-.511545-.275395-.210818-.3960737-.492943-.133056-.675859.8633169-.607653.9128261-1.416824 1.1727495-2.151589.3496588-.982786 1.21607-1.894265.949958-2.97626-.0464149-.195317.266112-.362732.7364495-.465041-.3063383 1.178103.266112 2.213594.922109 3.227383.160905.248021.1547163.483642.1578106.728564.0030944.440238.3279986.790569.7055063 1.109897.2166028.182916.4486772.45574.8787885.368932.4393943-.089908.1144901-.468141.4301113-.647957.1361503.074407.3929793.148813.3960737.22942.0402262.787469.9128261 1.314516 1.2748622 1.999676.1918482.359631 1.3986352.700661.0928297 1.134699-.0402262.012401 0 .248022.0990185.319328.3558474.263523.7488268.496043 1.1727494.768867.9190147-.737864.3001496-1.82606 1.6430869-2.557724-.2753949 1.116098.5322241 1.888066.816902 2.777844.2970553-.244922 1.5873891-.182917.4517716-.765768-.3465645-.179815-.1361503-.359631.0711695-.520845 1.0520707-.824672 1.4790877-1.869464 2.2557634-3.090971.0526036 1.423025 1.4481444 2.198093 1.8658784 3.264586.0072201.017568.0134088.035596.019139.053772l.0334646.108361c.0371314.105179.0990184.193365.3094324.197499.349659.0093.569356-.170515.677657-.359632.133056-.235621.148528-.480542-.312526-.610753-.383697-.11161-.411546-.344131-.07117-.461941.584828-.207718.668374-.675859 1.178938-.91458.423923-.198417.510564-.46194.061887-.719263-.615771-.353431-.430112-.663458.173282-.868076.467243-.155014.884977-.297626.878788-.697561-.009283-.536347.358942-.942483.860223-1.323816.442489-.334829.238263-.923881.983996-1.224607.603393.790569.925203 1.624542 1.726633 2.315902.547696.471242.504375.582852.953053.182917.767392-.68516 1.525502-1.376521 2.277423-2.070982.04951-.043404.006189-.127111.006189-.204618-.504375-.031003-1.002562-.058905-1.40173-.080607.618866-.824672 2.760139-.923881 2.029878-2.309702-.040226-.077507.275395-.257323.451772-.372033 1.349126-.899078 1.937048-2.05548 2.43214-3.249084.414639-.998288.819996-1.996575 1.228447-2.994863.634337.731664 1.092297 1.47573 1.333654 2.250798.498187 1.584238 1.398636 3.013463 3.013874 4.210168.173282.130212.411545.235621.219697.393735-.448678.372032-.120679.598352.253734.840173.628149.403036 1.175844.868076 1.97418 1.184304-.597205.254222-1.342937-.145713-1.7452.313128 1.247014 1.401322 2.896289 2.480217 4.774545 3.410298 1.070637.530147 1.757577.418537 2.1815-.424737.15781-.313127.349658-.601453.578639-.883577.61577.365832.327998 1.060292 1.132523 1.398222.491998-.951783.869505-1.894266 1.011844-3.019664.903543 1.48813 1.151089 2.895653 1.407918 4.315578.142339.781268.55079 1.540835.327999 2.350005-.02166.077507-.02166.195317.046415.241822.928298.641756.745732 1.525333 1.014939 2.300401.080452.22942 1.240824.496043.095924.806071-.027849.0062-.009283.161214.04332.226319.448678.533247 1.355315.68206 1.986557 1.069594.176377.10851.4363-.062005.615771-.176715.312527-.204618.362036-.505345.213509-.697561-.389885-.508445-.216603-.933182.225886-1.351719.156435-.148124.18012-.306774.1777-.466912l-.008608-.192302c-.002495-.063953-.002343-.127566.007284-.19026.055698-.368933-.049509-.731664.123773-1.109897.32181-.697562.717884-1.395123.615771-2.154689-.037132-.291426.210414-.465041.597205-.579751.334187.406136.027849.877377.380602 1.311415.41464.514645-.201131 1.271111.727166 1.720651-.529129.564249-.006188 1.091295.126868 1.633843.049509.195317-.049509.434038.337281.511545.402263.083707.711695-.034103.974713-.235621.238263-.182916.448677-.353431.556979-.620054.482714-1.171903 1.321277-2.266299 1.556445-3.500207.04951-.260423.275395-.530146.275395-.827772-.003094-.229421.238263-.465041.498187-.468141.380602 0 .578639.248021.59411.520845.006189.083707-.040226.182916.012378.248022.380602.489843.102112 1.131599.513658 1.534634.733355.713063.714789 1.537735 1.089202 2.297301.980902-.220119.402263-1.202905 1.578106-1.460227.012378.716162.405357 1.26181 1.188221 1.698948 1.188222-1.109897 2.017501-2.343805 2.840591-3.583913.191849.341029.247547.778168.597205 1.001387 1.086109.68516 1.002562 1.776456 1.989652 2.477117.105207.077507.191848.282125.123773.34103-.68694.582851.099018.967285.389885 1.410624.293961.449539.813808.592151 1.349126.359631.355847-.155014.789053-.353431.82309-.641756.068076-.641756.903544-1.072694.835468-1.785757.866412.412337 1.076826 1.004488 1.358409 1.525334.20732.381333.312527.740965.996373.728564.677658-.012401.903543-.34413.928298-.768867.003094-.031003 2.172217 1.156401 4.325867 2.334504 3.51206.145713 8.620792.310027 8.642452.46194.046415.319328.25064.536347.560073.753366.396074.279025.377508.291426.232074 1.041692-.034037.170515.018566.319328.20732.449539.962336.672759 1.918482 1.348618 2.852969 2.002775.442488-.164314-.030944-.554948.581733-.632455.733355.809171 1.014939 1.810559 2.079387 2.501919.052603.034103-.099019.204618-.139245.313128-.071169.192216.018566.337929.327999.334829.256829-.006201.470337-.130211.550789-.288325.105208-.213919-.454865-.458841-.037131-.651057.925203-.424738.956146-1.215307 1.630709-1.748553.538413-.424738.996373-.933182.785959-1.578039-.095924-.297626.099018-.545647.578639-.635555.364615.329145.500743.700489.608619 1.075261l.090215.321169c.046318.1601.097955.318795.170671.473033.312527.660358 1.28724 1.072694 1.432673 1.754754.061887.294526.903543.365832.365131.830873-.251414.217019-.050767.354109.196266.479391l.15054.074298c.099744.049314.193927.098918.256587.153173.334187.291425.767393.514645 1.284145.678959.253735.077507.637431.232521.581734.539447-.668375-.080607-.717884.505345-.906638.517746-.96543.068206-.767393.319328-.4363.722363l.144477.178514c.29397.357011.633083.692219 1.288196.615156.52272-.060899.653834-.382093.752064-.712447l.052475-.179592.027835-.087647c.145433-.437139.145433-.948683.804524-1.280412.680752.815371.584828 1.736152 1.346032 2.464715.476526.45264.720978 1.02309 1.206787 1.472629.374413.34103-.349659.753366.377508 1.072694.739544.325529 1.243919.880478 2.023689 1.209106-.179471.22942-.990184-.037203-.792148.272824.281584.437581.042598.518737-.261833.555311l-.143496.01485c-.144829.013956-.288684.028635-.386818.074696.037132.071306.052604.151913.111396.207718.105207.102309.275395.176715.352753.285225 1.178938 1.590439 2.076292.91148 3.081948-.058905.139245-.133312.30015-.285225.327999-.440239.238263-1.305214 1.197504-2.470916 1.510031-3.760629.046415-.195317-.086641-.465041.297055-.523946.439394-.068206.755015.201518.776676.418537.077358.824672.544601 1.587339.80143 2.381008.30015.936282.767393 1.860163 1.67403 2.62593.823091.694461.844751.68206 1.002562 1.640044.015471.105409.145433.207718.256829.294525.201131.155014.427017.297627.646714.44644 1.240825.846374 1.228447.837073 2.401197-.018602.755015-.551848 1.5812-1.057193 2.308367-1.621442.392979-.300726.13615-.641756-.448678-.691361-.47962-.040303-.977807.074407-1.44505-.068206.027849-.151913.182566-.155013.346565-.186016 1.23773-.23252 1.992746-.855675 2.651837-1.553236-.52913-.731664.423923-1.165702.91592-1.540835 1.321277-.998287 1.680219-2.216694 2.200066-3.4227.079765-.185327.139054-.376013.196543-.570492l.087218-.294369c.181075-.593644.429997-1.214387 1.251024-1.819974-.275395.706862.191849 1.075794.337282 1.519133.615771 1.869464 1.383164 3.714126 3.202627 5.24876.151622.127111.4363.325529.386791.390634-.332984.418709-.038116.644981.304097.851668l.159192.094633c.079163.04725.156092.094874.223651.144995.473432.353431.971618.69136 1.683313.939382-.618865.440239-1.324371.11781-1.769954.316228 1.457427 1.733052 3.57704 3.025865 6.290764 4.086158-1.243919.303826-2.147462-.489843-3.128363.055805.20732.46194.974712.616954 1.355314 1.106796h-2.868439c1.389352 1.503632 2.506403 2.988662 4.725035 3.900142-.362036.083707-.761204.089908-.891166.22322-.278489.279024.142339.443338.430111.57355.6003.269723 1.21607.533247 1.853501.759566 1.178939.418537 1.185127.406136 1.878256-.483642.052604-.068206.18566-.105409.30015-.167415.516752.511545.714789 1.103697.953052 1.683448.142339.337929.66528.359631.841657.192217.519846-.486743.928297-1.035491 1.336748-1.574938.20732-.275925.371319-.56425-.253734-.768868-.213509-.068206.015471-.294525.182565-.415436.25064-.182916.522941-.359632.448677-.647957-.167093-.663458.269206-1.206005.720978-1.751653.513658-.616954.789053-1.25871.795242-1.996575.009283-.601453.402262-1.193605.352753-1.82296-.015472-.189116.25064-.362732.587922-.403035.417734 2.650732 1.742105 5.875014 3.307834 7.115123-1.07992.244922-1.234636.384434-.727167.849475.928298.849474 1.160373 2.015176 2.797271 2.579425-1.28724.322429-1.28724.322429-.584828 1.066494-1.534785.223219-1.324371.201517-1.117051 1.233908.194942.957984 1.998934 1.466428 1.380069 2.579426-.012377.018601.064981.068206.111396.093008.495092.288325.832373.660358 1.612143.753366 1.033505.120911 1.033505.204618 1.197504-.604553.037132-.189117.269207-.254222.352754-.393734.693128-1.193605 2.159839-2.16709 2.141273-3.562212 0-.102309.139245-.238721.374413-.201518.188754.027902.30015.11781.318716.254222.123773 1.047892.652903 1.981074 1.704973 2.768543.108302.080607.120679.22942.145434.34723.083546.399935.931392.68206.402262 1.178103.532224.387534 1.064448.778168 1.609049 1.178103.210415-.151913.411546-.22942.448678-.334829.133674-.367382.308287-.726394.494012-1.083061l.377427-.711996c.31214-.593702.599912-1.192055.725233-1.82296.046415-.22942.244451-.465041.510563-.465041.383697-.0031.603394.244922.587922.517746-.052603 1.060293.946864 1.928369 1.141806 2.945258.021661.108509.179471.223219.318716.294526.133056.068206.346564.139512.482715.111609.269206-.052704.278489-.23562.266112-.409236-.012377-.23872-.284678-.359631-.482715-.508444-.275395-.213919-.396074-.496043-.133056-.68206.860223-.604553.909732-1.413724 1.172749-2.148488.349659-.982786 1.212976-1.894266.949958-2.979361-.046414-.192217.263018-.359631.733356-.46194-.303244 1.178103.269206 2.213594.925203 3.227382.157811.248022.151622.483643.154716.728564.006189.440239.331093.790569.708601 1.109897.213508.182916.448677.45574.875694.368933.439394-.089908.11449-.471242.433206-.647957.13615.074406.389885.148813.396073.22942.037132.784369.912826 1.314515 1.271768 1.996575.049739.094041.167905.186624.292919.279693l.107395.079938c.318601.240444.566147.487776-.30439.775068-.040226.012401 0 .251122.099019.322428.352753.263524.748827.496044 1.169655.768868.922109-.734765.300149-1.82606 1.646181-2.557724-.174056.697561.07615 1.259485.357782 1.800822l.169607.323251c.111396.215082.215249.430551.286419.65377.077816-.063498.222189-.106366.373532-.14519l.130041-.032674c.386905-.097371.70734-.199336-.051802-.587903-.346564-.179816-.133056-.359631.074264-.523946 1.048977-.821572 1.475994-1.866363 2.252669-3.08787.052604 1.423024 1.448145 2.194992 1.868973 3.264586.061887.158113.046415.35033.362036.359631.349659.009301.569356-.170515.677657-.359631.133056-.235621.148528-.480542-.315621-.613854-.380602-.10851-.408451-.34103-.071169-.461941.587922-.204618.671468-.672759 1.182032-.911479.423923-.198418.50747-.461941.061887-.719263-.618865-.353431-.430112-.666559.173282-.868076.464149-.158114.884977-.297627.878788-.697562-.012377-.536347.358942-.942482.860223-1.323816.439394-.337929.238263-.92388.980901-1.224607.603394.790569.925204 1.624543 1.729728 2.315903.547696.471241.504375.582851.949958.182916.770487-.68516 1.528597-1.37652 2.280518-2.070981.046415-.043404.006189-.130212.006189-.204618-.507469-.031003-1.002562-.058905-1.40173-.083708.618866-.821571 2.760139-.92078 2.029878-2.306602-.040226-.077506.275395-.257322.448677-.375132 1.349126-.895979 1.940143-2.05548 2.435235-3.245985.414639-.998287.816902-1.996575 1.225353-2.994862.637431.731664 1.092297 1.475729 1.336748 2.250797.495092 1.584239 1.398636 3.013464 3.010779 4.210169l.108128.07577c.144369.098713.268142.191473.114664.317964-.448678.372033-.123773.598353.25064.840174.631242.403035 1.178938.868076 1.977274 1.181203-.600299.257323-1.342937-.142612-1.748294.316228 1.250108 1.401323 2.899383 2.480217 4.777639 3.410299 1.070637.530146 1.754483.418536 2.1815-.424737.15781-.313128.346564-.601453.578639-.883578.612676.362732.324904 1.060293 1.132523 1.398223.488903-.951784.866411-1.894266 1.00875-3.022765.903543 1.491231 1.154183 2.898754 1.407918 4.318678.142339.781269.553884 1.540835.331093 2.350006-.02166.077507-.02166.195317.043321.241821.931392.641756.745732 1.525334 1.018033 2.300402.077358.22942 1.23773.496043.095924.80607-.027849.006201-.009283.161214.04332.22632.448678.533247 1.355315.68206 1.983463 1.069594.176377.105409.4363-.062006.618865-.179816.309433-.201518.362036-.502244.213509-.694461-.39298-.511545-.216603-.933182.225886-1.351718.281583-.269724.129961-.56735.176376-.852575.055698-.365832-.049509-.728564.123773-1.106797.318716-.700661.714789-1.398222.615771-2.157789-.040226-.288325.20732-.46194.59411-.57665.337282.406135.030944.877376.380603 1.311415.417734.514645-.198037 1.271111.73026 1.71755-.532224.56735-.009283 1.094396.126868 1.636943.049509.195317-.052604.430938.337281.511545.402263.083707.708601-.034103.971619-.235621.241357-.186016.451771-.35343.560072-.620054.13165-.31961.289767-.633454.454832-.945937l.333605-.624452c.3313-.625244.638329-1.256777.764915-1.929817.052604-.260423.278489-.530147.275395-.827773 0-.23252.241357-.465041.498186-.468141.383697 0 .578639.248022.594111.520846.006189.083707-.040226.182916.012377.248021.380602.489843.102113 1.1316.516753 1.534635.733355.713062.714789 1.537735 1.089202 2.297301.980902-.220119.402263-1.202905 1.578106-1.460228.012378.716163.405357 1.261811 1.188221 1.698949 1.185127-1.109897 2.017501-2.346906 2.840591-3.583914.191849.34103.247547.778168.597205 1.001388 1.083014.68516 1.002562 1.773355 1.986557 2.477117.108302.077507.194943.282124.126868.337929-.686941.585952.099018.970385.386791 1.413724.29396.44954.816901.592152 1.35222.359632.355847-.155014.789053-.353431.819996-.644857.07117-.641756.903543-1.069594.835468-1.782656.866411.412336 1.07992 1.004488 1.361503 1.522233.20732.384434.312527.744066.993279.731664.677657-.012401.906637-.34413.931392-.768867 0-.003427.023066.006209.066664.027455l.113823.057542c.325962.168375 1.062292.568508 1.951503 1.052803 3.391381.133311 7.519212.279024 7.537778.415436.046415.322428.25064.536347.560073.753366.396073.282125.377508.291426.232074 1.041691-.034037.173616.018566.319328.20732.45264.962335.669659 1.918482 1.345518 2.852968 2.002775.442489-.167414-.030943-.554948.581734-.635555.733355.809171 1.014938 1.813659 2.079386 2.505019.052604.031003-.099018.201518-.139244.313128-.07117.189116.018566.337929.327998.331729.256829-.003101.470338-.127112.55079-.288326.105207-.213918-.454866-.45884-.037132-.651057.922109-.424737.956147-1.212206 1.63071-1.745453.538413-.427837.996373-.933181.785959-1.581138-.095924-.294526.099018-.545648.578639-.632455.625053.561149.578639 1.249409.869505 1.866363.312527.660358 1.284145 1.072694 1.432673 1.757854.061886.294526.903543.365832.36513.830873-.405356.34413.352754.486742.603394.703761.334187.291426.767393.514645 1.284145.67896.253735.080607.637431.235621.581733.539447-.668374-.077507-.717883.505344-.906637.517745-.96543.071307-.764299.319328-.4363.722364.334187.412336.668374.883577 1.432673.793669.66528-.077507.696223-.57665.832373-.979686.145434-.437138.145434-.945582.804525-1.277311.680752.815371.584828 1.736152 1.346032 2.461615.476526.45574.717883 1.02619 1.206787 1.472629.140405.127886.126335.2658.092086.405076l-.036002.139409c-.043707.185629-.043707.368545.318329.528209.742638.328629 1.247013.880477 2.026784 1.209106-.071789.091768-.244576.104169-.413402.105856l-.163619.000657c-.180278.002534-.307544.021632-.215127.166311.451772.706862-.448677.483642-.792147.647957.037132.071306.052603.148813.111395.204618.105208.102309.275395.179815.352754.288325 1.178938 1.590439 2.076292.908379 3.081948-.062006.139245-.133311.30015-.285225.327999-.437138.238263-1.305214 1.197504-2.474017 1.51003-3.76373.046415-.192216-.086641-.46504.297056-.523945.439394-.068206.755015.201517.773581.418536.080453.827773.547696 1.587339.804525 2.381009.300149.936282.767393 1.863263 1.67403 2.62593.823091.697561.844751.682059.999467 1.640043.018566.10541.148528.210819.259924.294526.201131.158114.427017.300727.646714.446439 1.240824.846374 1.228447.840174 2.401196-.018601.755016-.548748 1.578107-1.057193 2.308367-1.618342.39298-.303827.136151-.641756-.448677-.694461-.47962-.040303-.977807.074407-1.44505-.068206.027849-.151913.182565-.155013.346565-.186016 1.23773-.232521 1.992745-.852575 2.651837-1.550136-.52913-.734764.423922-1.168802.91592-1.540835 1.318183-.998287 1.680219-2.219794 2.200066-3.4258.358941-.830873.303244-1.776456 1.534785-2.684835-.177039.456404-.047172.770591.106809 1.054578l.103123.18608c.050244.092032.096185.183474.12735.278475.615771 1.869464 1.383163 3.714125 3.202627 5.24876.151622.127111.4363.328628.386791.390634-.332984.420948-.038116.646225.304097.852186l.159192.09433c.079163.047121.156091.094658.223651.144779.473432.353431.971618.691361 1.683313.942483-.618865.437138-1.324371.11471-1.769954.316228 1.457427 1.729951 3.57704 3.022764 6.290764 4.083057-1.243919.303827-2.150556-.486742-3.128363.055805.207319.461941.974712.616954 1.355314 1.106797h-2.86844c1.389353 1.506732 2.506404 2.988662 4.725036 3.900142-.362036.083707-.761204.089908-.891166.223219-.278489.282125.142339.446439.430111.573551.600299.269723 1.212976.533246 1.853501.762666 1.178938.415437 1.185127.403036 1.878256-.483642.052604-.068206.18566-.10851.30015-.170515.516752.514645.714789 1.103697.953052 1.683447.142339.33793.66528.359632.841656.195318.519847-.489843.928298-1.038591 1.336749-1.578039.20732-.275924.371319-.564249-.256829-.768867-.210414-.068206.018566-.291426.18566-.412336.25064-.186016.522941-.362732.448677-.651057-.167094-.660358.269206-1.206006.720978-1.748553.513658-.620055.789053-1.261811.798336-1.999675.006188-.598353.399168-1.190505.346564-1.82296-.012377-.186016.253735-.362732.591017-.403035.417733 2.650732 1.742105 5.878114 3.307834 7.115123-1.07992.244921-1.234636.387534-.727167.849474.928298.849475 1.160372 2.015177 2.797271 2.579426-1.28724.322428-1.28724.322428-.584828 1.066494-1.534786.223219-1.324371.204617-1.117052 1.233908.194943.961084 1.998935 1.466428 1.38007 2.579426-.012378.018601.064981.068205.111395.096108.495093.288325.832374.660358 1.612144.750266 1.033505.12401 1.030411.204618 1.197504-.601453.037132-.189117.272301-.257323.352753-.396835.693129-1.190504 2.15984-2.16709 2.141274-3.562212-.003095-.102309.139244-.238721.374413-.201517.188754.027902.30015.11781.315621.254222.126868 1.050992.655997 1.981073 1.708068 2.768542.108302.080607.120679.22942.145433.350331.083547.399935.931392.678959.402263 1.175003.532224.387534 1.064448.778168 1.609049 1.178103.210414-.151913.411545-.22942.448677-.334829.442489-1.224608 1.346032-2.356207 1.596672-3.618017.046415-.22942.247546-.465041.50747-.465041.386791-.0031.606488.248022.591016.517745-.052603 1.060293.946864 1.93147 1.141806 2.948359.018566.105409.179471.220119.318716.294526.133056.068205.346564.136411.482715.108509.269206-.052705.278489-.235621.266112-.409236-.012378-.23562-.284678-.356531-.482715-.508444-.275395-.210819-.396074-.496044-.136151-.67896.863317-.607653.912827-1.416824 1.175844-2.151588.349659-.982786 1.212976-1.894266.949958-2.976261-.049509-.195317.263018-.362732.733355-.465041-.303244 1.178104.269207 2.213594.925204 3.227383.15781.248022.151622.483642.154716.728564.006189.443339.331093.790569.708601 1.109897.213508.182916.448677.45574.875694.368932.439394-.086807.11449-.468141.433205-.647956.133056.077506.389885.148813.39298.22942.02166.424021.285557.773435.580578 1.112131l.255574.289176c.168899.193021.328266.388503.43871.598368.049738.093238.167904.185225.292918.277907l.107396.079657c.318601.239755.566147.487777-.30439.777135-.040226.012401 0 .248022.099019.322428.352753.260423.748826.496044 1.169655.765767.922109-.734764.300149-1.826059 1.646181-2.557724-.174056.697562.076149 1.260697.358537 1.802942l.170157.323748c.111831.215372.216265.431034.288208.654254.297055-.248022 1.587389-.186016.448677-.768867-.346564-.176716-.133056-.356532.074264-.520846 1.048976-.824672 1.475993-1.869464 2.252669-3.090971.052604 1.423025 1.448144 2.198093 1.868973 3.264586.061886.161214.046415.353431.362036.362732.349659.006201.569356-.173615.674563-.362732.13615-.23562.148528-.477442-.312527-.610753-.380602-.11161-.408451-.34413-.071169-.461941.587921-.204618.671468-.675859 1.182032-.91458.423923-.198417.507469-.46194.061886-.719263-.618865-.353431-.430111-.663458.173283-.868076.464149-.155013.884977-.297626.878788-.694461-.012377-.536347.358942-.945582.860223-1.326916.156926-.119582.231758-.27159.29709-.431309l.078484-.193783c.097084-.226707.232461-.449152.605327-.599515.603393.790569.925203 1.624542 1.729728 2.319003.547696.471241.504375.582851.949958.179816.770487-.68516 1.528597-1.376521 2.280518-2.070982.046415-.040303.006189-.127111.006189-.204618-.50747-.027902-1.002562-.058905-1.40173-.080607.618865-.824672 2.760139-.92388 2.029878-2.306602-.040226-.080607.275395-.260422.448677-.375132 1.349126-.895979 1.940142-2.05548 2.435234-3.249085.41464-.995187.816902-1.996575 1.225353-2.994862.637431.734764 1.092297 1.475729 1.336749 2.250797.495092 1.584239 1.398635 3.013464 3.010779 4.210169.173282.130211.41464.23562.222791.393734-.448677.372033-.123773.598352.250641.840174.631242.406135 1.178938.868076 1.977274 1.184303-.600299.254223-1.342937-.145712-1.748294.313128 1.247013 1.401323 2.899383 2.480217 4.777639 3.410298 1.070637.530147 1.754482.418537 2.178405-.421636.160905-.316228.349659-.601453.581733-.886678.612677.365832.324905 1.060293 1.132524 1.398222.488903-.951783.866411-1.894266 1.00875-3.019664.903543 1.49123 1.154183 2.895653 1.407918 4.315578.142339.784369.553884 1.543935.331093 2.353106-.02166.074406-.02166.192217.04332.238721.931392.644856.745733 1.525333 1.018034 2.300401.024754.073415.160409.150956.295938.232523l.099888.061929c.240986.1567.383944.327463-.302997.511619-.024754.009301-.006188.161214.046415.22632.448677.536347 1.355315.682059 1.986557 1.069593.173283.10851.433206-.058905.615771-.176715.309433-.201518.362036-.505344.213509-.697561-.39298-.508445-.216603-.933182.225885-1.351719.156436-.148124.179166-.305816.176428-.465636l-.008583-.192327c-.002317-.064132-.001783-.128128.008532-.191511.055698-.368932-.049509-.731664.123773-1.109897.318715-.697561.714789-1.395122.615771-2.154689-.037132-.291425.20732-.465041.59411-.57665.337282.403035.030944.874276.380602 1.311414.41464.511545-.198037 1.268012.730261 1.717551-.33264.354593-.253106.692232-.113438 1.028055l.0882.201396c.059856.134281.118068.268755.152106.404392.049509.195317-.052604.434038.337281.514645.402262.083707.708601-.037203.971618-.238721.241358-.182916.451772-.353431.560073-.620054.482715-1.171903 1.318183-2.266299 1.553352-3.497106.049509-.263524.275395-.533247.275395-.827773 0-.23252.238263-.468141.498186-.468141.383697-.0031.578639.244922.594111.517745.006188.083708-.040226.182916.012377.251122.380602.486743.102113 1.128499.516752 1.531535.733356.713062.71479 1.537734 1.089203 2.297301.403901-.090638.542856-.310585.648883-.55595l.088227-.214113c.121314-.287323.286202-.569072.840996-.690165.012378.716163.405357 1.26181 1.188221 1.698949 1.185127-1.106797 2.017501-2.343806 2.840591-3.583914.191848.34103.244452.778168.597205 1.001387.464149.29364.7146.661877.926728 1.04199l.205849.381749c.206066.381062.432268.753095.85398 1.053378.108302.077507.194943.282125.126868.34103-.480859.407996-.239996.718767.047566 1.020576l.124132.129055c.082036.086014.160013.172325.218187.260993.290866.449539.810713.592152 1.349126.359631.355847-.155013.789053-.353431.819996-.641756.071169-.641756.903543-1.072694.835468-1.785756.866411.412336 1.07992 1.007588 1.358409 1.525333.210414.381334.315621.740965.996373.728564.677657-.009301 6.012275 4.585302 6.037029 4.160565 0-.009301.049509.182916.123773.477441.362036.257323.591016.697561.41464.198418-.126867-.356532.123773-.654158.751921-.762667.816902.675859.690035-.651057 1.070637.086808.408451.796769 1.677124 1.289712 1.868972 2.111284.083547.353431 1.182033.440239.476527.998288-.45701.360923.228059.536985.630797.747745l1.486001.014892h9.874144c-1.698288.026132-3.399829.048998-5.085103.084929 4.025788.420729 22.423129 1.258248 40.978684 2.321154l2.420018.139902c1.759458.102682 3.514776.207319 5.253812.313747l83.153477-.000103c18.216551-4.23848 36.229785-9.226946 54.501785-13.1855 3.392114-.742064 6.713816-1.860882 10.012047-3.022833l1.412227-.499647c6.114611-2.168151 12.171401-4.320688 18.471042-4.320688 8.267287 0 16.640194-1.486769 22.470335-4.880193 3.261331-1.815948 6.869826-1.790315 10.367413-1.820371l.721905-.007636c4.200133-.056436 8.192698-.384581 11.17242-4.319769 16.431598-3.287792 32.226844-9.966368 48.447205-10.600159 1.375681 0 2.85962-.425169 4.024064-1.169874 3.818109-2.331823 7.102844-4.874911 10.601457-5.300079 14.416925-1.780954 28.156201-6.139326 41.86675-10.634596l2.570549-.843872c2.57053-.844284 5.141475-1.688019 7.717115-2.515116 19.079981-6.253408 38.693336-11.025328 57.456462-18.129073 7.630936-2.968256 13.144222-2.543087 20.669539-.5308 8.765676 2.458582 17.186162 5.769378 25.563499 9.151319l3.588527 1.451482c9.56706 3.870088 19.13411 7.68736 29.15202 10.285904 6.04138 1.535624 11.97714 3.549892 17.90003 5.604102l3.9477 1.370576c4.6058 1.594676 9.21629 3.15454 13.87509 4.473178 2.6891.78112 5.38409 1.544625 8.08161 2.300654l2.69825.753914c22.04061 6.142742 44.17655 12.012338 64.5895 23.131576 14.31131 7.845809 28.83121 15.374721 44.3096 20.886065 5.83102 2.084469 11.79113 3.815952 17.76278 5.508311l2.55964.723817c11.09188 3.134091 22.16564 6.287891 32.46834 11.471776 1.80344.850336 3.70985.955968 5.72453.744705 5.24497-.506932 9.69886 1.925637 14.23774 4.310466l.87979.460182c2.79086 1.450274 5.63488 2.810217 8.73376 3.392055 16.85408 3.390784 34.13326 7.103745 49.29216 16.642304 1.69517 1.167232 3.60423 2.014928 5.51328 2.545728 5.83014 1.909297 7.84482 9.118673 4.02671 14.101857-2.65103 3.393424-5.61891 6.572944-8.58679 9.646832 5.19379 4.877552 9.22314-1.58976 13.56934-.211264-.10562 5.088816-2.86226 7.42064-6.88897 8.799136-23.21758 1.58976-45.9018 6.88984-70.7063 9.224305-1.80343.105632-3.70985 0-5.08817-1.061601-2.96788-2.12056-7.95043-1.272864-12.82737-1.272864-5.72452 0-13.14422 2.014928-16.85407-.739423-7.10284-5.302721-15.26715-.850337-22.68685-5.619617-2.59775-1.663443-6.44353-1.263287-10.40117-.772589l-1.42762.177154c-3.65068.445296-7.28065.766828-10.00519-.571797-6.30681-3.069065-12.28693-2.828878-18.29855-2.731305l-1.00229.01435c-1.33694.015794-2.67642.015075-4.02237-.040037-6.78335-.211264-13.35546-.528159-19.5051-3.604688-7.95043-3.924225-17.3848-2.968256-24.91012-7.843168-7.95043-5.088816-17.80992-6.575584-25.124-11.664401-14.62816-10.283264-30.31779-14.735648-45.36842-15.37208-1.37832-.105632-2.75665.211264-4.02935.742064-8.28926 3.526561-16.00823 7.65027-23.56518 11.704355l-1.96798 1.05557c-13.098881 7.020755-25.815098 13.655563-40.296207 16.397116-13.569336 2.543088-27.772383 4.132848-40.494131-.213904-11.554664-4.029857-22.684213-5.30008-34.450113-5.30008-15.053277.105632-30.106553.105632-45.159829 0-.847588 0-1.728513.046379-2.616203.092758l-.761915.038672c-2.414053.115609-4.822027.133593-6.692606-.873494-4.305822-2.31407-7.283146-.674131-10.280909 1.002082l-.545573.304294c-2.731995 1.514745-5.548447 2.86324-9.462831 1.102031-.643216-.297002-2.730919.411284-4.936388 1.262004l-.632192.246193c-2.321385.911454-4.633345 1.889042-5.410463 1.940684-14.522543.847696-28.086598 2.928644-42.823019 5.263109-.547289.099294-13.245428-1.80231-26.465367-3.884834l-1.689591-.266697-1.689883-.267821c-13.787272-2.189505-27.065969-4.407301-26.658414-4.591048 18.507001-8.373968 31.735718-13.491833 34.766968-15.258526 6.360874-4.344111 7.630937-8.479599 4.240583-10.705791-6.320475-4.239219-35.8897-7.400567-66.011208-8.967142l-2.288403-.115906c-7.24764-.357271-14.493989-.621539-21.423302-.785611-2.426585-.052816-4.850529-.102991-7.189979-.134681-.198035-.002641-.40135-.005282-.599385-.007922-.026457-.000343-.052908-.000684-.079353-.001024.694069.433645 1.353619.89431 2.25702 1.224672-.782865.306927-1.754483-.173615-2.283613.375133 1.63071 1.686547 3.784361 2.982461 6.238161 4.098559 1.398635.635555 2.292895.505344 2.846779-.508445.20732-.378233.454866-.722363.75811-1.063393.801431.437138.423923 1.274212 1.479088 1.677247.640525-1.1409 1.132523-2.272499 1.318183-3.627318 1.178938 1.791957 1.503842 3.478505 1.838029 5.186754.049509.241822.129962.477442.201131.716163 2.302179.164315 4.601263.33483 6.900347.508445.009283-.148813.086641-.288326.06498-.440239-.049509-.34723.272301-.558049.776676-.694461.190817.211852.248883.4371.28509.667239l.040052.27797c.014585.093076.032769.18639.061649.279399 1.822558.139512 3.635833.279024 5.421259.421637.080452-.22012.22898-.430938.278489-.657258.064981-.316228.358942-.638656.355847-.995187 0-.279025.315622-.561149.652903-.56425.498187 0 .755016.297626.776676.626255.006188.099209-.052604.22012.012377.297626.405357.474342.331093 1.038591.541507 1.503632 2.599234.210818 5.130392.424737 7.540872.632455.411545-.527046.949958-1.013788 1.336749-1.553236.25064.409236.321809.936282.77977 1.202906.281583.164314.349658.393734.532224.585951 6.055595.539447 11.247874 1.054092 14.688764 1.47883 15.156007 1.866363 17.888297 5.478179 2.732289 11.948446-15.156007 6.473367-53.66489 2.73754-71.553187 3.735827-18.01207.871177-97.765221 0-129.441833 8.33663-31.679707 8.21572-23.479744 23.899994-6.959139 49.66325 3.728663 5.723101 13.416997 10.454116 26.71022 14.313954l-1.865879 9.458928-277.644562-5.850212-264.348245 5.227058 4.4682063-230.759411 7.3954385.213919c.1048976-3.711025.2100737-8.874652.3278933-14.269087l.0237361-1.081602.0362845-1.629193c.2651512-11.781105.5993307-23.68979 1.12830565-23.298846zm582.334325 154.670381.062844.1381c.77893 1.684586 1.779896 3.158055 2.8724 3.953378-1.411013.294526-1.615238.46194-.949958 1.019989.369166.310432.65378.655898.93139 1.00546l.238045.299905c.559877.698753 1.180369 1.378527 2.481869 1.791807-1.680219.387534-1.680219.387534-.761204 1.280412-2.005123.269723-1.729728.244921-1.460522 1.48193.086641.390634.417734.713062.77977 1.026189 2.131991.186017 4.29183.33483 6.451669.486743.826185-.886678 1.655464-1.770255 1.639993-2.873952 0-.124011.182565-.285225.488903-.244921.250641.034103.39298.142612.41464.306927.151622 1.175003.823091 2.213594 2.0175 3.115773 1.689502.102309 3.360438.195317 5.018997.275924.269206-.514645.563167-1.02309.680751-1.565637.058792-.275924.318716-.558049.662186-.561149.504375-.003101.789053.297626.770487.623154-.030943.585951.259923 1.116098.57245 1.643144.634337.031003 1.21607.046504 1.841124.074407.696223-.672759.912826-1.450928 1.197504-2.194993.120516-.310843.287532-.615459.461914-.91933l.210287-.364638c.417628-.729963.787507-1.468257.568624-2.290645-.061887-.23562.346564-.434038.959241-.558049-.399168 1.413724.349659 2.656933 1.206787 3.87844.20732.297626.201131.579751.204225.874277.006189.530146.430112.948683.922109 1.333116.281584.22012.587922.545648 1.144901.443339.57245-.108509.151622-.564249.563167-.778168.179471.089908.513658.179816.516752.275924.006189.11316.058793.213144.12416.30964l.137784.191212.062961.097501c3.53372.102309 6.702309.170515 9.477919.213918.164-.251122.30015-.471241.485809-.737864.009283.303826.259924.489843.365131.750265 1.803992.024803 3.323306.037204 4.650771.043404-.055697-.040303-.024754-.080607-.102112-.12091-.804525-.424738-.563168-.79677.225885-1.041692.609583-.189116 1.157278-.356531 1.147995-.837073-.015471-.644856.470338-1.131599 1.123241-1.590439.575544-.406136.309432-1.109897 1.28105-1.472629.789053.951783 1.209882 1.950071 2.258858 2.784044.714789.564249.655997.700661 1.240825.220119 1.005656-.824672 1.99584-1.655545 2.976741-2.489518.061887-.049604.009283-.155014.009283-.248022-.662186-.034103-1.311994-.068206-1.831841-.096108.483406-.593821 1.679646-.874414 2.357808-1.360354-.725659-.014435-1.451172-.040291-2.176201-.08547-.010562-.010563-.015843-.023767-.026405-.03433-1.932819-.060738-3.860356-.126758-5.872388-.245594-.015843.021126-.021124.047534-.036967.06602-5.729803-.314255-11.235167-.8609-16.410474-1.539585-13.198467-1.54862-25.956557-3.806642-34.178678-5.753391zm-5.023816-15.664304.281553.018392c16.656382 1.084117 30.481043 2.325184 29.864096 3.566856-1.438013 3.015001-20.246061 1.966447-41.926884 3.932895-1.139987.109847-2.211563.218568-3.215192.345797-.461019.228739-.947154.203257-1.379643.196258-.248283.038375-.490801.079559-.728636.123027 1.903255 2.063064 4.658252 3.605898 8.181124 4.87287-1.62452.362732-2.806553-.589051-4.081415.065106.269206.554949 1.271768.740965 1.76686 1.330016h-3.744134c1.81018 1.807459 3.270702 3.590115 6.170085 4.684511-.473432.099208-.996373.108509-1.166561.266623-.362036.33793.18566.536347.563168.68826.785958.325529 1.584294.644857 2.419762.91458 1.53788.502244 1.547163.486743 2.450706-.57975.068076-.080607.241358-.127111.396074-.201518.671469.613854.928298 1.323816 1.243919 2.021377.182565.406136.866411.430938 1.095391.23252.680752-.585951 1.21607-1.246309 1.748294-1.894266.269207-.328628.485809-.675859-.334187-.92388-.278489-.080607.02166-.350331.238263-.496044.331093-.220119.683846-.434038.587922-.781268-.219697-.79367.352753-1.447827.940675-2.101984.383856-.423585.665578-.857302.838228-1.316789-.921712-.242631-1.755919-.477401-2.495089-.702454.728767-4.127566 11.552023-4.856426 16.265248-4.856426 4.129683 0 9.843644-.639073 14.081586-1.700673l3.886761-1.214767c6.432166-1.581837 10.915672-.512315 17.329355-1.439234 1.219893-.472703 1.787593-.940124 1.2595-1.386419-2.854644-2.598055-30.362354-3.146907-52.536829-3.663616z" fill="#b5bdb9" fill-rule="evenodd" transform="translate(0 -401)"/></svg>