<svg height="399" viewBox="0 0 1440 399" width="1440" xmlns="http://www.w3.org/2000/svg"><path d="m1482.61425 417.010159c.61447-.40195 1.01376 11.188811 1.33033 23.2878l.0678 2.643425c.22754 9.029071.41445 17.876423.61561 21.784597l1.12115-.005909 13.25086 193.437892-371.78857 30.842036-165.879085-6.959501-49.125714-6.880707c11.708046-4.902972 15.664585-10.280679 7.595846-15.026062-21.041773-12.335239-133.290837-32.185478-206.936059-30.999625-29.085537.469121-52.569525-.616471-70.500637-2.243278.613442 1.065538 1.067497 2.14813 1.342769 3.263772.764944 3.102037 2.159692 5.905359 4.65086 8.251674.27028.255312.640003.459561.341675.773594-.691.727639-.188686 1.169328.392671 1.641654.971479.796573 1.818017 1.702929 3.049577 2.323337-.923033.500411-2.072999-.285949-2.697703.612748 1.927659 2.749707 4.477472 4.863688 7.37661 6.686613 1.654829 1.039119 2.713001.822104 3.368303-.829763.244782-.617854.540561-1.17954.894985-1.736119.368873.278006.527197.654472.656279 1.049515l.107708.341295c.163507.513177.364305 1.019332.987734 1.348684.757295-1.863775 1.338652-3.709679 1.560486-5.918125 1.055623 2.210999 1.486541 4.32498 1.828216 6.431302 26.854633-1.021247 55.772065-1.958241 82.802635-.763382 51.080408 2.256955 79.434331 20.396851 63.569393 25.727759-15.867487 5.328355-140.650247 2.356527-180.368688 6.867884-39.71844 4.613482-79.436881 15.170621-124.78276 50.122791-16.38 12.502614-10.546027 47.046285 3.582488 86.200886l-55.277401 4.713054-234.827599-30.134439-202.5826612-14.759569-.109642-37.267847-33.1857158-4.365145.0392406-.129037c1.366475-7.004599 2.1891177-253.77074 5.06502256-256.324011l.08960303-.000571c.31518241.274792 7.82874765.611058 15.71438705.970893l1.0081726.046062c.1681903.007697.33641755.015404.50461598.023121l1.00831882.046413c8.05536866.372174 15.74137876.764725 15.78666346 1.137276.1351401 1.079969.7164975 1.807607 1.5987329 2.540351 1.1372167.944654 1.0862204.98295.6655013 3.510536-.096893.582111.053546 1.079969.5966562 1.524211 2.7563481 2.262062 5.4922977 4.541995 8.164502 6.755547 1.269807-.559132-.0892435-1.868881 1.6675779-2.136959 2.0959464 2.731836 2.9093369 6.112162 5.9563637 8.443158.1478891.112337-.2855791.686789-.4028705 1.05699-.2065349.643386.0560959 1.141244.9408811 1.123372.7317964-.012766 1.3488512-.431477 1.5757845-.970185.3034278-.722532-1.3029545-1.549741-.1019925-2.200786 2.6390567-1.427193 2.7333998-4.090094 4.6661582-5.890041 1.542637-1.437405 2.8557908-3.14544 2.2540349-5.328355-.2779296-1.000822.2753798-1.840797 1.6497292-2.139512 1.7925187 1.899519 1.6573786 4.225409 2.4911675 6.301093.351209.873166.9909422 1.617324 1.6646764 2.337874l.4514001.478026c.9017022.953683 1.763298 1.907033 1.9814733 3.109884.178487.993162 2.5880605 1.233155 1.0454235 2.800769-1.1525156 1.169328 1.0122758 1.649314 1.7262235 2.379505.9638294.98295 2.197939 1.73612 3.6844801 2.290146.724147.268077 1.8231165.791466 1.6573786 1.817819-1.9098101-.265524-2.0525996 1.708035-2.59316 1.753992-2.7588979.232333-2.1902896 1.072309-1.2468587 2.438226l.2057785.299907c.8951294 1.306199 1.8602988 2.655326 3.8917714 2.373207 1.9098101-.262971 1.9965037-1.948029 2.3840753-3.306287.4181694-1.475701.4156196-3.191396 2.3050312-4.314767 1.9506071 2.75226 1.6752273 5.85685 3.850218 8.305289 1.3666999 1.536976 2.0653487 3.462026 3.4651962 4.970919 1.0658219 1.151455-1.0020766 2.540351 1.0709215 3.620319 2.1188948 1.1055 3.5671887 2.974381 5.7931757 4.077328-.2089089.322221-.7291071.356793-1.2270995.360583l-.2456017.000519c-.6016583.00083-1.0817721.020457-.7889832.560573.8635368 1.589741.004533 1.786047-.9549522 1.902923l-.2065509.024308c-.0344844.004009-.0689492.008035-.1033205.01214l-.2045146.026048c-.3033153.041917-.5870861.09987-.7974457.217496.1019925.239993.1453393.502964.3161768.697001.0866937.097748.1877495.188618.2932954.277076l.3202358.262607c.1569808.132152.3018518.268926.4012945.425395 3.3734029 5.366652 5.9410648 3.066294 8.8198039-.204249.3977709-.449349.8592871-.962525.9383313-1.480808.6782503-4.401573 3.426949-8.343586 4.3219334-12.688991.1351401-.656151-.2498817-1.570167.8516377-1.76931 1.2596074-.227227 2.1571424.676576 2.2183374 1.411874.224384 2.788003 1.565585 5.353886 2.294832 8.032105.861837 3.163312 2.197939 6.280668 4.793649 8.859316 2.363677 2.348868 2.424872 2.297805 2.86854 5.535158.048446.349777.423269.702107.739446.988056.578807.528495 1.22646 1.011034 1.848614 1.508892 3.55444 2.854385 3.523842 2.828853 6.881946-.063828 2.154592-1.856116 4.518269-3.561598 6.609116-5.46367 1.121918-1.021247.382472-2.167596-1.290206-2.336102-.422092-.043207-.849012-.036378-1.276898-.020272l-.64207.026024c-.7488.026592-1.494643.01919-2.216829-.240639.076495-.50807.520162-.518283.994428-.62296 3.54169-.788914 5.706482-2.885023 7.593343-5.236443-1.517139-2.476524 1.211162-3.93946 2.621208-5.198146 3.045382-2.715775 4.304767-5.918064 5.460534-9.190413l.276256-.786496.277446-.787907c.093254-.262728.187568-.525479.283803-.788038 1.030125-2.805876.864387-5.989612 4.395878-9.055906-.787892 2.392271.54821 3.627979.966379 5.124106 1.759371 6.303645 3.952211 12.530698 9.166579 17.710972.428368.423817 1.249408 1.09784 1.101519 1.317408-.941609 1.400567-.123067 2.158947.843408 2.848289l.23397.164409c.313544.218229.62903.434083.893628.666344 1.35905 1.189752 2.781846 2.336101 4.821697 3.173524-1.77467 1.483361-3.791573.39318-5.074129 1.069756 4.176594 5.838978 10.24515 10.199702 18.011881 13.779172-3.559539 1.026353-6.15015-1.646761-8.949845.186377.591557 1.554848 2.786946 2.080791 3.875717 3.73521h-8.210399c3.972609 5.075597 7.175174 10.082259 13.529309 13.153659-1.040324.280842-2.18774.308927-2.560013.753169-.790442.947206.41307 1.49868 1.23411 1.935263 1.723674.908909 3.477945 1.8025 5.308711 2.565882 3.373403 1.409321 3.391252 1.365918 5.375007-1.631442.150438-.227227.530361-.357436.864386-.569345 1.473792 1.731014 2.039851 3.722445 2.73085 5.678132.400321 1.141244 1.897061 1.212731 2.401924.656151 1.494191-1.64676 2.662005-3.49777 3.82982-5.320695.594106-.926782 1.065822-1.902072-.731797-2.591414-.606855-.232333.050997-.985503.525262-1.396555.721597-.620407 1.49929-1.217837 1.287656-2.190574-.481915-2.231424.772593-4.067115 2.065348-5.905359 1.466143-2.085897 2.256585-4.248387 2.279533-6.740229.020399-2.022069 1.142317-4.021159 1.002077-6.150459-.043347-.63062.719047-1.222943 1.687976-1.355705 1.195863 8.935909 4.982335 19.819847 9.472556 24.001852-3.098023.829763-3.53914 1.30209-2.085747 2.86715 2.659455 2.862045 3.317307 6.793845 8.003864 8.701023-3.679381 1.082521-3.679381 1.082521-1.667578 3.594788-4.393328.75317-3.791572.686789-3.200016 4.161581.223679 1.308717 1.201161 2.367509 2.169529 3.412852l.304608.329937c1.310942 1.430181 2.454435 2.881789 1.475524 4.960787-.033147.066381.183587.22978.316177.319139l.007649.00766 7.92992 1.003374c.035697-.18893.066295-.283395.107092-.50807.109642-.640832.777693-.865506 1.007176-1.332727 1.986304-4.023712 6.188397-7.31468 6.134851-12.020074-.0051-.344671.40032-.799126 1.070921-.681682.54566.097018.861837.398286.907734.857847.359523 3.541173 1.879212 6.68406 4.887992 9.341855.305977.27063.349324.771041.418169 1.174433.237133 1.353152 2.664555 2.295253 1.152516 3.970097.530361.457008 1.073471.924229 1.603832 1.38379l4.615162.584663c.423537-1.19889.935817-2.375884 1.459592-3.549715l.524746-1.173471c.95857-2.151976 1.869235-4.31431 2.256001-6.60244.132591-.776148.703749-1.570167 1.458494-1.575273 1.098969-.005107 1.726223.837422 1.687976 1.751438-.152989 3.576917 2.710451 6.510448 3.266311 9.939284.058645.365096.517612.750616.917932.993162.377373.229781.984228.467221 1.37435.377862.775143-.181272.800641-.799126.770043-1.38379-.043346-.801678-.823589-1.210177-1.389648-1.7208-.790442-.71232-1.132117-1.669739-.382472-2.290146 2.468219-2.0476 2.611009-4.774329 3.358104-7.253405 1.002077-3.319052 3.480495-6.390452 2.720651-10.046515-.13514-.656152.757294-1.217837 2.103596-1.565061-.872036 3.97265.764944 7.465314 2.644156 10.891597.456417.834869.438568 1.628888.446217 2.456098.015299 1.488467.943431 2.665454 2.024552 3.745423.617055.615301 1.290206 1.53187 2.511566 1.240814 1.257058-.298714.328926-1.582932 1.23666-2.182915.387571.252759 1.121917.502964 1.132117.771042.112191 2.652688 2.616108 4.43987 3.648782 6.742781.152281.338288.529441.67106.914569 1.006634l.153962.134399c.945712.829956 1.763934 1.683708-.8008 2.68609-.099443.038296.00255.62296.214184.939547l4.752852.599982c.170426-.491763.290928-.999278.408155-1.511433l.100765-.439868c.374512-1.615114.848321-3.244704 2.869582-4.543828-.53954 2.574359.369046 4.604156 1.258468 6.592377l.230623.518053 3.113322.395733c-.211634-.204249-.504863-.434029-.974028-.717425-.991878-.599983-.387572-1.205072.211634-1.759098 3.00368-2.777791 4.225041-6.303646 6.451028-10.426929.150439 4.807519 4.145996 7.414251 5.346958 11.016699.181037.538708.13514 1.187199 1.035224 1.215284.999527.03319 1.631881-.579558 1.935308-1.212731.385022-.796572.428369-1.618676-.894984-2.068024-1.09387-.370202-1.170364-1.159116-.201435-1.557402 1.677777-.691894 1.917459-2.274827 3.378502-3.081612 1.213711-.668917 1.455944-1.559954.173388-2.425461-1.764471-1.189752-1.22901-2.241637.497213-2.925872 1.336102-.531048 2.539614-1.003375 2.516666-2.351421-.030598-1.810159 1.032674-3.17863 2.463119-4.470507 1.262158-1.133584.680801-3.114803 2.812444-4.133497 1.726224 2.673114 2.651806 5.481542 4.951738 7.817644 1.563035 1.593145 1.438094 1.968454 2.7232.617855 2.200489-2.313124 4.37038-4.646673 6.524972-6.985328.132591-.145528.017849-.439136.017849-.694448-1.453394-.099572-2.87364-.199143-4.015956-.27829 1.77212-2.777791 7.901871-3.114802 5.813574-7.7819-.119841-.265524.787893-.870613 1.287656-1.263793 3.860417-3.02289 5.550943-6.931712 6.968639-10.952871 1.185664-3.365009 2.340729-6.737676 3.511093-10.10779 1.820567 2.47397 3.128621 4.983684 3.82217 7.598076 1.420246 5.338567 4.003207 10.161405 8.623469 14.202989.497213.436583 1.183113.788913.632353 1.330174-1.282556 1.251027-.349324 2.009303.724147 2.8263 1.800168 1.368471 3.368304 2.928425 5.655486 3.993075-1.713474.862954-3.842568-.487645-5.000184 1.059544 3.572289 4.730925 8.297093 8.37167 13.672099 11.504344 3.067425 1.789735 5.028232 1.41698 6.244492-1.427192.453867-1.062097.999527-2.027175 1.659929-2.987147 1.756821 1.230603.933232 3.57947 3.240812 4.715607 1.404948-3.206715 2.486068-6.385345 2.894038-10.186936 2.585511 5.02964 3.296909 9.768225 4.031255 14.560425.092141.601143.223925 1.197803.365091 1.793005l.257692 1.070446c.396279 1.664724.72375 3.332268.318098 5.069084-.061195.260418-.063745.653598.130041.809338 2.662005 2.172702 2.136743 5.149637 2.909337 7.766581.226933.771042 3.54934 1.674845.27028 2.71907-.076495.022978-.022948.546367.13004.760829.152989.214462.441118.291055.627254.472326l6.616766.837423-1.394439-1.831059.013498.001536c.216039.012646.793512-.008795 1.490833-.03768l.162938-.006785c-.27793-1.202518.237132-2.27738 1.188213-3.336924.523011-.584814.528252-1.212386.50065-1.842599l-.015399-.343773c-.008551-.229035-.009786-.457456.019612-.683331.160638-1.240815-.14024-2.466311.354424-3.74287.917933-2.353973 2.052599-4.707947 1.764471-7.271277-.109642-.97529.596656-1.56506 1.703275-1.945475.963829 1.363365.086693 2.951403 1.09387 4.424552 1.185663 1.733566-.571159 4.286683 2.085747 5.795575-1.014826 1.274857-.687883 2.487303-.242327 3.696346l.136002.36267c.182819.483581.365046.967561.468398 1.455717.119842.564239.084144 1.169327.716498 1.521657.708848-.957418 1.415146-1.868881 1.950607-1.628888.68845.31148 1.116818.462114 1.473792.528495.476815-.469773.974029-.903803 1.211161-1.577826 1.384549-3.952225 3.778824-7.646585 4.449424-11.808166.14279-.880825.790442-1.792288.787893-2.790557-.00255-.781253.685899-1.575273 1.427895-1.577826 1.09387-.005106 1.654829.832316 1.700726 1.751438.015298.283396-.114742.617855.033147.839976.887335 1.337833.576258 3.002465 1.045424 4.314767.433468-.98295.736896-1.99909.747095-3.132674.012749-1.360811.713947-2.703751.624704-4.136049-.025498-.423818.448767-.822104 1.053073-.911463.55076 4.429658 1.988854 9.543551 3.82472 13.066852.362073-.513176.877135-.959972 1.818017-1.202518.035697 2.410142 1.160165 4.25094 3.40145 5.729194 3.398901-3.740316 5.777877-7.912109 8.133905-12.091561.548209 1.146349.706298 2.627157 1.710924 3.377773 3.100573 2.313124 2.86854 5.989613 5.688634 8.361458.305977.257865.553309.952313.359523 1.143797-1.398639 1.398637-.668139 2.458285.171068 3.492154l.187458.229452c.281409.343923.558266.687559.755743 1.04251.838888 1.513998 2.330529 1.993984 3.862967 1.210177 1.022475-.520836 2.261684-1.189752 2.353477-2.167596.082869-.902101.545554-1.680093 1.043137-2.454945l.299977-.465502c.597294-.934121 1.145504-1.898561 1.048611-3.102356 2.478419 1.391449 3.085274 3.395646 3.891015 5.144531.201435.436583.387572.842528.596656 1.215283-.022948-.413605.481915-.771041 1.282556-.993162-.145339.712319-.168287 1.396555-.117291 2.068025.298328.10723.640003.178718 1.08622.171058 1.055623-.020425 1.10152 3.561598.940882 6.630445 0 .033191.017848.068934.017848.104678.0102.998269.589007 1.792288 1.264708 2.517373.385021.413605.805741 1.031459 1.568135.834869.785342-.201696.203985-1.064649.770043-1.468042.054396.037446.119243.074891.187294.112477l.206518.113318c.168029.095015.310787.191782.315036.292488.068845 1.784629 1.631881 2.987147 2.276984 4.531782.341675.819551 2.503916 1.593145.168287 2.573542-.020398.010213-.00255.107231-.00255.171059l3.299459.053615c.27283-1.245921.453867-2.545457 1.91236-3.553938-.267731 1.373577.040797 2.512267.453866 3.592235l1.761921.028084c.068845-.079146.101993-.163399.181037-.239993 1.876663-1.866328 2.639057-4.238174 4.028705-7.010859.091793 3.214375 2.557463 4.970919 3.319857 7.373402l1.874113.030637c.237132-.533601.26263-1.082521-.560959-1.383789-.68335-.250205-.731797-.778701-.127491-1.049331 1.047973-.464667 1.198412-1.529317 2.111245-2.070578.757295-.449348.907734-1.049331.107093-1.631441-1.09897-.799126-.767494-1.506339.311077-1.968454.833789-.354883 1.585984-.674022 1.570685-1.580379-.020399-1.215284.645102-2.136959 1.537537-3.005019.787892-.763381.425819-2.093555 1.756821-2.777791 1.078571 1.794841 1.654829 3.684148 3.090374 5.256868.976579 1.067203.897534 1.322515 1.700725.413605 1.3718-1.554848 2.728301-3.122462 4.072052-4.697735.084144-.097019.010199-.293609.010199-.467221-.905183-.066381-1.792518-.132762-2.503916-.183824 1.106619-1.868882 4.931339-2.096109 3.628384-5.23389-.073945-.178718.492114-.587217.803191-.850188 2.409574-2.029728 3.465196-4.659438 4.349982-7.363189.739445-2.262061 1.461043-4.529229 2.192839-6.796397 1.137217 1.664632 1.953157 3.352243 2.386625 5.108787.884785 3.589682 2.498817 6.832141 5.382656 9.548657.020738.019574.041998.038898.063516.058027l.130086.112848c.257919.222714.476999.432682.201619.722716-.800641.842529-.219284 1.353152.451317 1.902072 1.124468.919122 2.103596 1.968453 3.531491 2.685879-1.070921.579558-2.399374-.331905-3.123521.709767 2.231087 3.181183 5.18122 5.629622 8.536775 7.735944 1.914909 1.202518 3.13882.952313 3.898664-.959972.283029-.71232.624704-1.363364 1.035224-2.00675 1.09897.82721.583908 2.405036 2.024552 3.170971.877136-2.157383 1.552836-4.294342 1.805268-6.850012 1.614032 3.380326 2.060249 6.566616 2.516665 9.78865.101993.707213.27793 1.406767.428369 2.106321.441118-.536154.864387-.962525 1.203512-.809338 1.820567.819551 1.830766.79402 2.899138-.949759.081594-.130209.285579-.206803.466615-.329352.795542 1.005928 1.10152 2.16249 1.473792 3.298627.216735.66381 1.025025.707213 1.295306.382967.80829-.957419 1.438094-2.034834 2.067898-3.094377.318727-.538708.573708-1.102947-.395221-1.503786-.326376-.135315.028048-.571898.283029-.811891l.194813-.179995c.319966-.301764.594779-.621259.501286-1.091458-.260081-1.299536.41562-2.364186 1.111719-3.431389.792992-1.21273 1.218811-2.468864 1.23156-3.916481.010199-1.176987.617054-2.336102.54056-3.574364-.022948-.367649.387572-.709766.910283-.788913.645103 5.19304 2.687504 11.51711 5.112376 13.947678-1.672678.479986-1.90981.755722-1.127018 1.664632.362074.421264.655302.880825.933232 1.350599.012749-.0817.058646-.153187.071395-.232334.089243-.594876.492114-1.207624.489564-1.879094 0-.523389.428369-1.05699.892435-1.059543.68335-.005107 1.032674.559132 1.063272 1.17954.007649.18893-.073945.413605.017848.561685.68335 1.108053.183587 2.565883.923033 3.477346 1.310604 1.621229 1.277456 3.49011 1.948057 5.213464 1.751722-.502964.716498-2.729282 2.820094-3.311392.022948 1.621229.724147 2.856937 2.123994 3.852653.293229-.349777.499763-.737851.772593-1.09784.033148-.242546.13514-.459561.132591-.714873-.00255-.201696.216734-.46722.578807-.398286.022949.005106.017849.038297.040797.043403 1.320804-1.92505 2.483518-3.921588 3.55189-5.964081.341675.773594.441118 1.76931 1.068372 2.272274 1.935308 1.554848 1.789969 4.026265 3.55189 5.621963.191236.173612.344224.638279.224383.768488-.860703.927349-.441149 1.635382.067355 2.322307l.146678.195861c.098027.13042.195165.260758.283181.392386.254981-.717426.563509-1.419533.68335-2.172703.068845-.449348.379922-.911463.785342-.914016.594107-.005106.930682.485092.910284 1.016141-.040797 1.018693.313627 1.948028.716497 2.864597.484465-.303821.940881-.656151.981678-1.143796.124941-1.45783 1.616582-2.433121 1.494191-4.051797.578807.349777.879685.791466 1.198412 1.222943.586457-1.8025 1.733873-3.505429 1.348851-5.50452-.073944-.382968.40797-.709766 1.134667-.911463-.471715 2.308018.41307 4.340299 1.425346 6.329177.247332.485092.237132.947206.242232 1.427192.00255.459561.158088.865507.379922 1.243368.033148-.15574.13259-.265524.14024-.436583.000811-.018684.107203.043018.292234.164382l.177228.118153c.422999.28556 1.090676.756468 1.830469 1.279973.028048-.265524.030598-.554026.293229-.740404.046463.03234.102118.064679.16067.097159l.178046.097999c.145119.082249.268989.16625.273239.254191.017849.487645.293229.875719.504863 1.289324.889885.63062 1.703275 1.194858 2.243836 1.547188 2.639056.025532 5.306161.045957 8.116055.025532.41562-.862954.808291-1.751439 1.302955-2.736942.030598 1.077416.40542 1.937816.849088 2.742048 1.514589-.015319 3.174517-.066381 4.735003-.094465.053546-.04085.073944-.107231.13514-.142975.652752-.388074.785342-.906356.094343-1.409321-.95363-.691894-.665501-1.302089.265181-1.700375.721597-.308928 1.371799-.582111 1.35905-1.365918-.017849-1.051884.555859-1.848457 1.328453-2.59652.6808-.661257.367173-1.81016 1.517139-2.402483.933231 1.552295 1.430445 3.183737 2.672204 4.541995.843988.924228.775143 1.143797 1.468692.35999 1.188213-1.345493 2.358577-2.698645 3.521292-4.059456.071395-.084253.00765-.255312.00765-.403393-.782793-.058721-1.547737-.11489-2.164792-.160846.95618-1.616123 4.263288-1.81016 3.136271-4.52157-.063746-.15574.425818-.50807.693549-.735298 2.083197-1.756544 2.99603-4.028818 3.760974-6.36492.640003-1.955688 1.262158-3.913928 1.894511-5.872169l-.34029 1.053144c-26.782194-2.491901-40.868743-6.175443-42.427959-7.546006-2.364466-2.149113-8.914035-12.386455 31.644431-14.293275.348759-.516103.736925-1.022356 1.509317-1.420267.561561-.289568.650228-.860827.955639-1.304044.695547.850977 1.406857 1.696046 2.191071 2.521415 1.324101-.037427 2.84327-.039397 4.258009-.061065l.00197-.00197c1.138884-.013789 2.220627-.039397 3.410742-.045307.197038-.360483.439396-.715057.859089-1.047963.66205-.523982.214772-1.36314.825592-1.997434.082757-.086674.009852-.214714.017734-.325026.027585-.354574.340877-.679601.951697-.677631.415752.00197.799978.309268.799978.610656-.001971.386091.35861.736726.439396 1.079481.183246.787942.60688 1.530578 1.073862 2.265334 1.834431-.021668 3.639306-.055156 5.390981-.112282.179306-.508223-.049259-1.075541.384226-1.514819.234804-.237204.286596-.482273.306174-.725518l.017683-.290399c.017937-.240236.063981-.474772.288934-.693918.618701.147739 1.012779.374273.951697.752485-.137927.847038.321173 1.63498.772392 2.415043 2.628498-.112281 5.054045-.299418 7.493386-.480644-.169454-.949471.313291-1.857575.518212-2.787347.411811-1.849695.809829-3.681661 2.254124-5.623939.228565 1.467543.833474 2.696733 1.617688 3.935773 1.292575-.439278.829533-1.347382 1.814727-1.822117.368463.370333.673873.744605.926083 1.154335.681754 1.09918 1.77729 1.24298 3.493498.55156 3.004841-1.211461 5.647132-2.617939 7.645105-4.445965-.648257-.596866-1.838372-.074854-2.79598-.40776 1.276811-.4117 2.153634-1.014476 3.160502-1.544367.600968-.315177 1.123121-.608686.4059-1.0913-.307381-.208805.074875-.344725.35467-.514133 2.581208-1.560126 4.027473-3.42361 4.821539-5.486049.388167-1.010536 1.119181-1.979705 2.137871-2.935085.654169 1.302074 1.300456 2.604149 1.962507 3.904254.792096 1.554217 1.737882 3.063126 3.897427 4.231251.279795.151679.786185.386092.719192.488524-.737962 1.139614.357748 1.610546 1.514971 2.073331l.289562.115909c.577584.233007 1.133626.477738 1.446607.816761-.638406.031517-1.434443.068945-2.244272.106372 0 .100462-.065023.212744.007881.26987 1.205878.904164 2.419637 1.804388 3.649159 2.698703.719192.522012.648258.376242 1.52311-.238353 1.286663-.904164 1.802905-1.987584 2.768395-3.021759 1.192085.393971.866971 1.160245 1.57237 1.597553.801948.498374 1.395034 1.028265 1.377301 1.727564-.011822.520042.66008.703239 1.406857.908104.96549.26396 1.264989.671721.277825 1.130697-.715251.332906-.579294.677631.098519.937652.817711.311237.951698.921892 1.889602 1.189793.541857.153648.498508.458976-.114282.600806-.738896.175317-.715251.492464-.500479.799761.171424.244262.524123.480645 1.081743.468826.379792-.008864.459224-.151802.517596-.309975l.038861-.106402.022837-.052449c.673873-1.392688 2.906323-2.401254 2.991049-4.256859 1.243315 1.591644 1.92704 2.954784 3.607781 4.028356.334966.212744.671902.447157.118223.6796-1.820639.760365.244328.679601.721162 1.000687.45713-1.164185 1.749704-2.168811 1.306367-3.622565 2.151664.95341 1.160559 2.373676 2.632439 3.334966.675843-.354574 1.308337-.661871 1.875809-1.000687.157631-.094553.222654-.40382.159601-.421549-1.375105-.371515-1.011-.690289-.512455-.998807l.13205-.080278c.221648-.133502.442332-.265764.530155-.400277.577324-.888405 1.978269-1.577854 2.039351-2.60218.005912-.104402.415752-.200925.634465-.299418.50639.230473-.011822.728847.691607.843099.681754.112281 1.058098-.240323 1.402916-.478675.604909-.41761 1.123121-.872647 1.132973-1.447845.003941-.319116-.005911-.624444.250239-.9475 1.050217-1.323744 1.966447-2.673095 1.477791-4.207613.752688.13395 1.251197.350635 1.176322.604746-.423634 1.412387.961549 2.59824 1.521139 3.880616.417723.95735.498509 2.011223 1.87778 2.801136.419693.240322.228565.610655-.212802.886435-.035248.021887-.071955.043288-.109398.064465l-.227684.126465c-.224916.127968-.424144.266733-.441221.472911-.015763.224564-.00197.464886.429545.533831.218713.035458.55959-.057125.770421-.143799.224624-.094553.480775-.244262.514272-.386092.30935-1.323743 1.911276-2.45641 1.824579-3.839249-.021674-.352605.329055-.679601.943816-.675661.421663.00197.742836.309267.81574.606716.40393 1.646799 1.846254 3.120252 2.557564 4.715835.061082.13789.382255.238353.715251.435338.872882-.520042 1.724089-1.028265 2.575297-1.536487-.843326-.646113.512301-1.010537.644317-1.532548.039407-.155619.063052-.348665.234476-.453067 1.682711-1.026295 2.531948-2.241696 2.732928-3.608777.025615-.177287.20295-.295478.50836-.332905.374374-.045307.600969.13001.598998.26396-.018916 1.163634.936303 2.103769 1.917833 3.036771l.367455.349965c.425818.408887.833994.821586 1.145158 1.256215.128075.181227.502449.267901.563531.516102.264032 1.051904.25812.945531 1.917187.785973 1.247256-.120161 1.789112-.604746 2.581208-.980988.072905-.035458.195069-.096523.177335-.122131-.991105-1.451784 1.897484-2.111686 2.206835-3.362545.332995-1.343441.667961-1.317833-1.789112-1.607402 1.125091-.971139 1.125091-.971139-.931994-1.388749 2.620616-.738696 2.989079-2.257455 4.476722-3.362544.811799-.604746.565501-.787942-1.168441-1.107059 2.512245-1.615282 4.628442-5.820925 5.298374-9.274082.541857.053186.96746.281689.943816.525951-.078816.82143.549738 1.593614.55959 2.375647.013793.961289.45516 1.796508 1.274841 2.604149.723132.709149 1.42459 1.418297 1.154647 2.281094-.118223.374272.315262.606715.719192.847038.267973.157588.634465.449127.295558.53777-1.004898.267901-.740866.644143-.409841 1.000687.652199.705209 1.306368 1.420267 2.141812 2.05653.281766.214714 1.119181.187136 1.343805-.254111.386196-.754455.703428-1.524669 1.52705-2.19442.187187.082734.399989.13395.482746.220624 1.109328 1.158275 1.11918 1.176004 3.004841.630354 1.024602-.295479 2.003885-.638234 2.969375-.990838.4591-.167438 1.131003-.382152.689636-.746575-.208861-.173348-.849237-.183197-1.430502-.291539 3.55261-1.185853 5.343692-3.122222 7.56432-5.082228h-4.591004c.608849-.638234 1.836401-.843099 2.167426-1.443905-1.566458-.707178-3.014693.325026-5.004785-.070915 4.344705-1.382839 7.735743-3.067066 10.072623-5.324521-.719191-.260021-1.846253.159559-2.837358-.4117 1.138884-.323056 1.934921-.766274 2.69549-1.22722.129652-.0784.281056-.151915.434416-.22543l.183702-.088531c.546319-.267468 1.015334-.560261.483329-1.106305-.082756-.084704.376344-.344725.616732-.510193 2.916174-2.001373 4.141755-4.404598 5.126949-6.84131.232506-.577168.979283-1.055843.537916-1.979705 1.421517.853814 1.772555 1.730095 2.072439 2.558257l.099465.274175c.083639.226833.17207.449348.28714.666032.113656.214625.222548.429506.331214.643885l.218374.427861c.625488 1.209099 1.340821 2.385799 2.971496 3.391948.790125.486554 2.315206 1.051903 1.467939 2.007283 1.054157.910074 2.265946 1.719685 4.246186 2.023042.264032.041367.512301.045307.553679.242293-.748747.185166-1.544784.035457-2.311265.088643-.935934.066975-1.349716.508223-.721162.904164 1.16844.734756 2.49057 1.392688 3.696448 2.111686 1.87778 1.116908 1.858076 1.124788 3.846197.023638.348759-.193046.71131-.378212 1.034454-.583077.175364-.110312.386196-.246232.413781-.382152.248269-1.250859.281766-1.23116 1.603896-2.137294 1.450206-.996747 2.198953-2.202299 2.679728-3.42361.111237-.282047.247976-.560872.39059-.83911l.287247-.556476c.283452-.557258.538071-1.119204.606856-1.706937.033496-.283659.533975-.634294 1.239374-.54565.616731.076824.399989.429428.476834.68354.500478 1.678317 2.037381 3.201016 2.415695 4.902971.045319.198956.30344.397911.526094.571259 1.609807 1.262677 3.04622 2.151082 4.931881.078794.128075-.14183.398019-.240323.567472-.372303.094579-.074854.118223-.177287.175364-.26987-.547767-.212745-1.992062.078794-1.266959-.843099.317232-.40382-.981253-.055156-1.264989-.356543 1.245285-.425489 2.055115-1.148427 3.239318-1.573915.580279-.208805.580772-.447158.511069-.688958l-.062355-.198076c-.050973-.17581-.065563-.349678.152254-.511564.782244-.583078 1.172381-1.327683 1.934921-1.92061 1.2177-.945531 1.06401-2.147143 2.153634-3.208895 1.056128.433368 1.054158 1.097209 1.288634 1.666498.216743.523982.266002 1.176004 1.333953 1.278436 1.223611.116222 1.755615-.498373 2.291561-1.034174.528064-.527921.845296-.850978-.697517-.941591-.30344-.017729-.382256-.780063-1.450206-.677631-.092608-.397911.522153-.598836.928053-.703238.831503-.212745 1.521139-.504283 2.059055-.884466.398019-.281689 1.609807-.466855.96549-.917953-.539393-.379197-.215203-.557561.128326-.731789l.136441-.069938c.155716-.082423.291129-.169658.320439-.281693.232505-.890375 1.789112-1.426176 2.28959-2.288973.068964-.116222.094579-.240322.143839-.360484h-1.491584c.023645.017729.764511-.325026 1.824579-.829309.165513-.435338.396048-.862797.916231-1.244949.455159.068945.697517.222594.829533.40579.445788-.214474.909553-.438187 1.376491-.663705l.467448-.225846.466275-.225397c2.400392-1.160551 4.622092-2.237026 4.623581-2.204259.031527.458976.307381.82143 1.140855.833249.835445.011819.96549-.376243 1.21967-.791882.344818-.561409.604909-1.205552 1.664978-1.654679-.080786.774153.939875 1.241009 1.026572 1.938338.037438.315177.569442.527921 1.006869.697329.656139.250172 1.294544.096523 1.655125-.390031.077531-.104488.183649-.206091.293597-.30762l.132191-.12198c.348962-.326147.635738-.663071.049076-1.102948-.080786-.061066.023645-.28563.155661-.368363.483139-.304934.756944-.677001.996575-1.061359l.234726-.386424c.275695-.45087.584345-.893588 1.204098-1.241071.431515-.240322.498508-.717028.732984-1.085391 1.008839 1.343442 2.02753 2.684914 3.483646 3.888496.959579-.474735 1.440354-1.067662 1.456117-1.841815 1.442324.27775.732985 1.343442 1.934921 1.583764.459101-.82537.435456-1.719684 1.335923-2.493838.50639-.435338.165513-1.134637.632495-1.662558.063052-.072885.007881-.179257.013793-.26987.019703-.297449.260091-.565349.727073-.565349.319203.00197.614761.256081.61279.508223-.00197.321086.275855.614595.336937.898254.287676 1.337532 1.314249 2.525356 1.905365 3.797883.135957.285629.392107.470795.685695.669751.323144.218654.701458.348664 1.192085.258051.478804-.086674.35467-.344725.413781-.55747.167483-.587017.807859-1.158275.155661-1.77287.625302-.266522.679596-.634939.686416-1.005293l.002158-.201602c.004367-.234025.028056-.461475.205982-.656589.429545-.474735.055171-.984928.466982-1.424206.474863.124101.776333.313207.729043.626415-.093972.634899.172322 1.229003.478705 1.813693l.186079.349935.091845.174591c.212802.40973.082757.805671.15172 1.203582.01064.061853.011823.124258.009679.186852l-.010278.187988c-.007992.187829.009269.374099.217342.549022.541857.453067.754659.914013.275854 1.467543-.181275.208805-.120193.535801.262062.754455.222654.126071.539886.309267.754659.193046.774362-.41958 1.885661-.581108 2.435399-1.160246.065023-.068945.086697-.236382.055171-.246232-1.404887-.334875.017733-.626414.116253-.872646.073561-.187355.119683-.380352.159426-.574884l.057463-.292436c.115888-.58512.26914-1.165571 1.028396-1.630457.082756-.051217.080786-.177287.055171-.260021-.273884-.878556.230535-1.701956.40393-2.552934.313291-1.540427.618701-3.065096 1.726059-4.682347.173395 1.22328.636436 2.245635 1.239374 3.27784.989135-.366393.634465-1.120848 1.389124-1.516789.279795.307297.514271.618535.70934.95932.522152.915983 1.359567 1.034174 2.673816.458976 2.303384-1.006596 4.326972-2.178661 5.855993-3.699389-.496537-.498374-1.408827-.063036-2.141811-.340786.612051-.214221 1.104033-.490771 1.57504-.775303l.561484-.341793.285082-.16725c.459101-.261991.85909-.506253.311322-.910073-.177335-.130011-.056526-.225672.104738-.32438l.110675-.066667.05453-.034442c1.978269-1.302075 3.085627-2.852352 3.692507-4.568096.297529-.841129.857119-1.64877 1.637392-2.444592.500479 1.083421.995046 2.168812 1.503406 3.250263.60688 1.294195 1.331983 2.550963 2.985138 3.524072l.161123.092294c.202596.115003.428899.247616.390586.313497-.587053.985051.34145 1.370321 1.263563 1.771551l.261972.115603c.388753.175652.749709.365007.963065.616533-.488656.023638-1.097506.055156-1.720149.088643 0 .082734-.049259.175317.007882.222594.922141.752485 1.852165 1.503 2.79401 2.247606.549738.433368.496538.313207 1.16647-.198956.985194-.752485 1.381242-1.654679 2.120137-2.513536.91426.326996.664021.96326 1.203907 1.327683.612791.41564 1.069921.856887 1.056128 1.437995-.009852.433368.50442.585047 1.077802.756425.738896.220623.967461.557469.210832.941591-.547768.277749-.443337.563379.076845.780063.624613.258051.727073.768244 1.446265.990837.415752.128041.382255.382152-.086697.500344-.565502.143799-.547768.40973-.384226.665811.132016.202895.401959.399881.829533.390032.386197-.00985.366493-.218654.443338-.392002.514271-1.158275 2.226538-1.997434 2.289591-3.541801.953667 1.325713 1.47582 2.46035 2.762484 3.352695.25615.177287.516241.372303.090637.565349-.883522.401719-.572043.522152-.132238.624016l.141907.031857c.215527.047779.434654.097597.54401.177376.348759-.9672 1.339864-1.804388 1.000958-3.01585 1.647244.793852.886674 1.977736 2.015707 2.777497.518212-.295478 1.002927-.551559 1.436412-.833249.120194-.078794.169454-.336845.120194-.350634-1.601925-.470796-.118223-.839159.116253-1.23116.443337-.740666 1.515228-1.315864 1.562518-2.166842.00394-.088643.319202-.167438.484715-.250172.388167.193046-.009852.606716.530034.703239.522153.092583.8118-.200925 1.073862-.399881.463041-.346694.861059-.724907.866971-1.203582.00394-.26593-.003941-.522012.193098-.789912.803918-1.10115 1.505376-2.225937 1.131002-3.502404.577324.110312.959579.291539.900468.502313-.197477.718669.121616 1.367451.497698 2.006588l.208024.348025c.17346.289828.341429.579925.460747.875951.319203.797792.380285 1.674378 1.438384 2.334279.319202.198956.173394.506253-.165513.734757-.242358.165468-.575353.295478-.593087.553529-.013792.189106-.003941.386092.329055.445188.165513.029548.427574-.047277.589146-.120161.171424-.078795.366492-.202896.392107-.321087.238417-1.10115 1.463999-2.044711 1.398976-3.195106-.015763-.295479.252209-.565349.723132-.563379.323144.00197.567472.256081.624613.506253.307381 1.36905 1.412768 2.59627 1.956595 3.923953.04729.114252.293588.198955.549739.364423.667961-.433368 1.32016-.856887 1.972358-1.278436-.646287-.539741.392107-.843099.492597-1.278437.031526-.13001.04926-.289569.179305-.376242 1.288634-.854918 1.940833-1.865454 2.094523-3.004031.019704-.147739.15369-.246232.388166-.277749.287677-.037428.461071.108342.459101.220623-.023645 1.51285 1.775319 2.572632 2.626527 3.864858.098519.151679.384226.222594.431515.429429.20295.876585.199009.785972 1.467939.653992.955638-.100463 1.37139-.504283 1.978269-.815521l.036445-.020108c.051514-.029374.108576-.066565.097542-.082324-.43236-.691138.104229-1.166798.688062-1.641631l.219351-.178443c.363276-.298737.700001-.607633.78515-.979092.25221-1.118878.510331-1.097209-1.37139-1.339502.86106-.807641.86106-.807641-.715251-1.154335 2.007826-.614595 2.289591-1.879243 3.428475-2.799166.622643-.504283.433486-.655962-.892585-.921892 1.923098-1.345412 3.544728-4.845846 4.057028-7.719866.413782.043337.740866.232443.723133.435338-.061082.68551.419692 1.327683.427574 1.979705.011822.799762.348759 1.495121.977312 2.166842.55368.590957 1.091595 1.179944.882734 1.898941-.088667.313207.242358.504283.551709.705209.20492.13198.486686.374272.226595.449127-.770422.220624-.567472.533831-.313292.831279.498508.587017.998987 1.181914 1.639363 1.713775.216742.177287.857118.155618 1.028542-.212745.295558-.628384.537916-1.268587 1.170411-1.826056.141868.068945.30541.110312.370433.183196.847266.96523.855148.979019 2.301413.525952.782244-.246232 1.532962-.533831 2.271857-.82734.3527-.139859.866971-.317146.528064-.620504-.157631-.1438-.650228-.151679-1.095536-.242292 2.721106-.988868 4.094467-2.598241 5.794912-4.231251h-3.517143c.466982-.531861 1.406857-.701269 1.661037-1.201612-1.199966-.588987-2.309295.26987-3.834375-.059096 3.327985-1.150396 5.924957-2.552934 7.714069-4.432176-.549738-.216684-1.412768.13395-2.173338-.342755.874852-.26987 1.483702-.638233 2.064967-1.022355.094578-.062285.204241-.120854.315902-.179218l.167354-.087833c.413954-.221393.763999-.46461.36007-.914863-.063053-.070915.289647-.287599.472893-.423519 2.232446-1.666498 3.172326-3.667872 3.926986-5.696824.17733-.480645.75072-.878556.41181-1.646799 1.51326.984928 1.44232 2.009253 1.88369 2.911447.6384 1.309954 1.07977 2.631728 2.69746 3.715148.60294.405791 1.77138.876586 1.12115 1.672408.80786.756425 1.73591 1.430116 3.25311 1.684227.20295.033488.39211.037427.42561.200925-.57339.155619-1.18421.029548-1.77138.074855-.71722.055156-1.03249.421549-.55171.750515.89455.612625 1.90536 1.160245 2.82948 1.759081 1.43838.929772 1.42459.937652 2.9477.019699.266-.161528.54185-.315177.79209-.484585.13399-.092583.29556-.206834.31526-.319116.19113-1.040084.21675-1.024325 1.22756-1.77878 1.11326-.83128 1.68468-1.831966 2.05314-2.850382.31329-.860827.88667-1.686197.98322-2.582481.02562-.236383.40984-.527922.9517-.455037.46895.065005.30541.358514.36255.569288.38423 1.398598 1.56055 2.665216 1.85217 4.081542.03349.165468.23053.330936.40196.476705 1.23346 1.049934 2.33294 1.790599 3.77723.065006.09852-.118192.30541-.200926.43349-.311238.0729-.061065.09063-.145769.13595-.224563-.11-.045735-.26653-.063185-.42796-.077597l-.16152-.014336c-.40019-.037985-.7443-.109592-.38192-.609336.24236-.334876-.75072-.045307-.96943-.295478.95367-.354575 1.57434-.95735 2.48269-1.311925.88864-.346694.00197-.793852.4591-1.164184.599-.486555.8985-1.10509 1.48173-1.597554.93199-.787942.81574-1.786659 1.64922-2.673094.64786.289962.77617.700953.89339 1.096816l.06003.19604.03374.095892c.16551.437308.20492.979019 1.02066 1.063722.93791.096523 1.34578-.413669 1.75562-.860827.40393-.439278.64825-.709148-.53398-.784002-.23053-.013789-.29162-.648083-1.1113-.563379-.06896-.330936.40196-.498374.71131-.585047.63644-.179257 1.1645-.42155 1.57631-.736727.30738-.234412 1.23347-.390031.74087-.766274-.39723-.301388-.18443-.4496.06597-.589302l.12568-.069811c.12351-.070442.23257-.144785.25563-.241111.1793-.740666 1.36942-1.187823 1.75364-1.904851.35861-.667781.2995-1.416326 1.06795-2.026981.58915.096523.8256.366393.70737.689449-.25812.701269.30344 1.250859.96352 1.711805.82756.579138.86894 1.436025 1.99995 1.895002.51427.208804-.17537.474735-.04335.707178.09655.173347.36058.307297.67387.313207.37831.00591.49063-.155619.40196-.362454-.04926-.118191-.23448-.303357-.17142-.338815 1.30439-.750515 1.65315-1.837875 2.54968-2.716431.75269.086673.17142.508223.71525.68748 1.14479-.711118 2.3152-1.443905 3.49547-2.172752.2325-.141829.29752-.303357.25615-.490494-.17931-.811581-.20295-.825369.2857-1.128727.37635-.234413.62659-.468826.68373-.817491.0185-.115622 3.12284-.238482 6.4626-.355363l.55832-.019423c.74603-.025817 1.49587-.051302 2.21823-.076311 1.47976-.713087 2.61667-1.256768 2.61864-1.235099.02956.460946.30738.82143 1.13889.833249.83741.013789.96549-.374273 1.22164-.789913.34482-.563378.60491-1.207521 1.66498-1.654679-.08276.774154.93987 1.24101 1.0246 1.936369.0394.315177.56944.529891 1.00884.697329.65614.252142 1.29257.098493 1.65315-.390032.07753-.104488.18374-.205997.29384-.30738l.13239-.121783c.34954-.325567.63727-.661537.05061-1.101415-.08276-.063035.02364-.285629.15369-.368363 1.20981-.762334 1.10932-1.946218 2.43737-2.688853.42954-.240323.4985-.717028.73298-1.087361 1.00884 1.345412 2.02753 2.686884 3.48168 3.890466.96154-.476705 1.44232-1.067662 1.45808-1.843785 1.44233.277749.73299 1.343441 1.93295 1.583764.46107-.8234.43743-1.717715 1.3379-2.491868.50639-.437308.16354-1.134637.63052-1.664528.06305-.070915.00788-.179257.01576-.269871.01971-.295478.25812-.565348.72708-.563378.3192.001969.61279.256081.61279.506253-.00197.323056.27585.614595.33693.900224.28768 1.337532 1.31228 2.525355 1.90537 3.795912.13399.287599.39211.470796.68569.671721.32118.216684.69949.348665 1.19209.258051.31789-.059095.36868-.192608.38532-.338085l.00971-.110376c.00353-.036889.00857-.07355.01875-.109008.02921-.103939.07327-.207264.12244-.310333l.10228-.205903c.20666-.411546.39132-.822802-.06906-1.256634 1.13692-.486555.38423-1.306015.89259-1.865454.43151-.472765.05517-.982958.46895-1.422236.47289.122131.77633.313207.72904.626414-.12216.8234.36255 1.579825.75466 2.338219.2128.40973.08276.803702.15369 1.203582.0532.309268-.13004.632324.21477.921893.54186.453067.75663.914013.27586 1.467543-.17931.208804-.11822.535801.26403.754455.22068.12804.53792.309267.75466.193045.77436-.419579 1.88566-.579137 2.43343-1.160245.06502-.068945.08867-.236382.05517-.244262-1.40292-.336845.0197-.626414.11625-.874616.33103-.841128.1064-1.798479 1.24726-2.497777.08275-.049247.08078-.175318.05517-.260021-.27389-.876586.22856-1.701956.40196-2.550964.31526-1.540427.62067-3.065096 1.72606-4.682348.17536 1.223281.6384 2.243666 1.23937 3.275871.98914-.364424.63644-1.120848 1.38912-1.516789.28177.309267.51625.620504.71131.961289.52019.914014 1.35957 1.034175 2.67382.458977 2.30141-1.008566 4.325-2.178661 5.85599-3.70136-.49653-.496403-1.40882-.061065-2.14181-.338815.97732-.342755 1.64922-.845068 2.42161-1.284346.4591-.263961.85712-.508223.30935-.910073-.23645-.173348.05714-.287599.26994-.427459 1.98024-1.300105 3.08563-2.850382 3.69448-4.568096.29556-.841129.85712-1.6468 1.63739-2.442622.50048 1.083421.99505 2.166842 1.50341 3.250263.60688 1.292225 1.33001 2.550963 2.98317 3.522102.21477.126071.60294.321087.55171.405791-.89456 1.503 1.73 1.609372 2.4886 2.503687-.48866.025608-1.09751.057125-1.71818.088643 0 .082734-.04926.177287.00788.222594.92214.754455 1.85216 1.50497 2.79401 2.247606.54974.435338.49654.313207 1.16647-.196986.53738-.410446.89889-.86602 1.23673-1.334754l.3356-.471937c.16949-.236978.34575-.474581.54781-.708815.91229.326996.66402.965229 1.2039 1.329653.61279.415639 1.06795.854917 1.05613 1.437995-.00985.433368.50442.585047 1.07583.754454.7389.220624.96943.559439.21281.941592-.54777.279719-.44531.565348.07487.780063.62658.260021.72904.770213 1.44626.992807.41576.128041.38226.380182-.08472.500343-.56747.1438-.54777.407761-.38423.663842.13005.204865.40196.401851.82954.390031.38619-.007879.36649-.216684.44136-.390031.51624-1.158275 2.22654-1.997434 2.29156-3.543771.9517 1.325713 1.47582 2.46035 2.76249 3.354665.25615.177287.51427.372303.09064.565348-1.39504.632324.18718.565349.55367.83325.34876-.96917 1.3379-1.804389.99899-3.01585 1.64922.793852.88865 1.975766 2.01768 2.775527.51624-.295478 1.00096-.54959 1.43641-.833249.1202-.078794.16748-.334876.1202-.350634-1.60193-.468826-.11823-.839159.11428-1.229191.44334-.740665 1.5172-1.315863 1.56252-2.168811.00591-.086674.3192-.167438.48668-.248202.38817.193046-.00985.606716.53004.701269.52215.094553.80983-.200925 1.07386-.397911.46304-.348665.86106-.726877.86697-1.205552.00394-.265931-.00394-.520042.19113-.789912.80391-1.10115 1.50734-2.225938 1.13297-3.502404.57732.112282.95761.293508.90047.504283-.32512 1.174034.73692 2.162902 1.1645 3.230564.32117.797791.38225 1.672408 1.43838 2.332309.32117.200926.17536.506253-.16354.736726-.24236.165468-.57536.295479-.59506.55353-.01182.187136-.00197.386092.32905.443218.16749.029547.42758-.045307.58915-.120162.17142-.076824.36846-.202895.39408-.319116.23841-1.10312 1.464-2.046681 1.39897-3.197077-.01773-.293508.25221-.565348.72314-.563378.32117.001969.56747.258051.62264.506253.30935 1.371019 1.41474 2.59627 1.95856 3.925923.04729.114251.29359.198955.54974.362453.66796-.433368 1.32016-.854917 1.97236-1.278436-.38895-.322663-.17-.560937.08909-.793963l.13027-.116442c.12835-.116737.24309-.235461.27324-.366062.02955-.130011.04729-.289569.1793-.378213 1.28864-.854917 1.93886-1.865453 2.09255-3.00403.01971-.147739.15567-.244262.38817-.27578.28768-.037427.46107.108342.46107.220624-.02364 1.51088 1.77532 2.570662 2.62653 3.864858.09852.149709.38422.222593.43151.427458.20098.876586.19704.787943 1.46794.655962.95564-.100462 1.36942-.504283 1.9763-.81749.05714-.027578.14975-.080764.13596-.102432-.7586-1.207522 1.45415-1.757112 1.69059-2.799166.25418-1.116908.5123-1.09524-1.36942-1.337532.86106-.807641.86106-.807641-.71525-1.156305 2.00783-.614596 2.28959-1.877273 3.42848-2.799166.62264-.502313.43348-.653992-.89259-.921893 1.92113-1.345411 3.54276-4.843876 4.05703-7.717895.41378.041367.74087.232443.72116.435338-.05911.68551.42166 1.327683.42955 1.977735.00985.801732.34876 1.497091.97731 2.168812.55368.588987 1.08962 1.179943.88273 1.898941-.09064.311237.24236.504283.55171.703238.20295.131981.48472.374273.22463.449128-.77043.222593-.56748.5358-.3133.833249.50048.587017 1.00096 1.181913 1.64134 1.711805.21674.179257.85515.155618 1.02854-.210775l.194-.420657c.22844-.490049.48403-.973344.97444-1.405399.14384.068944.30738.110311.37043.183196.84924.96326.85712.977049 2.30142.523982.78421-.246232 1.53493-.531861 2.27382-.82537.3527-.13986.86697-.317147.52807-.622474-.1596-.14183-.65023-.151679-1.09554-.242293 2.72111-.986898 4.0925-2.59627 5.79294-4.229281h-3.51517c.46501-.531861 1.40686-.701268 1.65907-1.201612-1.198-.590957-2.3093.269871-3.83241-.059095 3.32602-1.152366 5.92496-2.554904 7.71407-4.432176-.54974-.216685-1.41277.13198-2.17334-.344725.87289-.269871 1.48371-.638234 2.06497-1.020386.49654-.326996 1.40883-.551559.84333-1.183883-.06306-.068945.28964-.285629.47289-.423519 2.23245-1.666498 3.17232-3.667872 3.92501-5.694854.17931-.480645.75072-.878556.41378-1.64877 1.51129.986898 1.44233 2.011223 1.88172 2.913418.64038 1.307984 1.08175 2.631727 2.69747 3.715148.6049.40579 1.77137.874616 1.12312 1.672408.80786.756425 1.73591 1.430115 3.25114 1.684227.20295.033487.39407.035457.4256.198955-.57338.155619-1.18223.031518-1.76941.074855-.71722.055156-1.03445.423519-.55368.752485.89653.610655 1.90734 1.160245 2.83145 1.757111 1.43838.929772 1.42262.937652 2.94573.021669.266-.161529.54383-.317147.7921-.486555.13595-.092583.29555-.204865.31526-.317147.19113-1.042053.21871-1.026295 1.22952-1.780749 1.1113-.82931 1.68468-1.831967 2.05315-2.848412.31329-.862797.88667-1.686197.98322-2.584451.02561-.236383.40984-.525952.94973-.453067.31394.042023.34591.187355.34927.342025l.00111.116285c.00122.038367.00461.075849.01414.110978.38422 1.396628 1.56054 2.665215 1.85019 4.079572.03547.167438.23251.332906.40196.476705 1.23346 1.051903 2.33294 1.790599 3.77723.065005.09852-.116221.30541-.198955.43546-.309267.0729-.063035.09064-.147739.13399-.224564-.4197-.177287-1.52508.065006-.96943-.701268.24235-.336846-.75269-.047277-.96943-.297449.95366-.354574 1.57434-.95538 2.48071-1.309954.88865-.348664.00197-.793852.4591-1.164185.599-.486554.8985-1.105089 1.48371-1.599523.93199-.787942.81377-1.786659 1.64921-2.671125.80786.360484.80786.914014.98717 1.386779.16551.437308.20295.979018 1.02066 1.063722.93593.098493 1.3438-.41367 1.75561-.858857.40393-.439278.64826-.709148-.53397-.784003-.23251-.015759-.29359-.650052-1.1113-.563378-.07094-.330936.39999-.498374.71131-.587018.63643-.177287 1.1645-.419579 1.57631-.734756.08483-.065662.21771-.12494.3548-.184378l.16372-.071822c.29356-.133351.52261-.280148.22037-.510074-.36304-.277356-.21408-.425405.00595-.555578l.12442-.0699c.14719-.081045.29071-.163055.31691-.274746.17931-.740666 1.37139-1.187823 1.75562-1.906821.35664-.667781.2995-1.414356 1.06795-2.025012.58717.094553.82362.366393.7054.68748-.25615.701269.30541 1.250859.96549 1.713775.82756.579137.86697 1.434055 1.99797 1.895001.51427.208805-.17339.474736-.04335.707179.09655.173347.36058.307297.67387.311237.38029.005909.4926-.153649.40393-.360484-.05123-.120161-.23644-.303358-.17142-.340785 1.3044-.748545 1.65119-1.835906 2.54968-2.714462.75269.084704.17143.506253.71525.68748 1.14283-.713088 2.31521-1.445874 3.49547-2.172751.23251-.143799.29753-.303358.25615-.490494-.18127-.813551-.20295-.82537.28374-1.128728.37831-.236382.62855-.470795.68372-.81749.01821-.109209 2.75208-.224424 5.84733-.334886l.56623-.020029c.4743-.016643.95363-.033162 1.42978-.04952l.56935-.019549c.7557-.025956 1.4949-.05146 2.18406-.076359l.48033-.232276c2.15683-1.043146 4.21458-2.039939 4.71092-2.257801l.084-.035294c.01904-.007293.02891-.010013.02903-.007864.03153.458976.30738.82143 1.14086.833249.83544.013789.96549-.376243 1.21967-.791882.34482-.561409.60491-1.205552 1.66498-1.652709-.08079.774153.93987 1.239039 1.02657 1.936368.03744.315177.56747.529891 1.00687.697329.65614.250172 1.29454.096523 1.65512-.390031.0771-.104488.18298-.205997.29281-.307401l.13211-.121818c.34888-.325694.63661-.662082.04995-1.103329-.08079-.061066.02364-.28563.15566-.368363 1.20784-.762335 1.10736-1.944248 2.4354-2.688854.43151-.240322.4985-.717028.73298-1.085391 1.00884 1.345412 2.02753 2.684914 3.48365 3.888496.95958-.474735 1.44035-1.067662 1.45611-1.841815 1.44233.27775.73299 1.343442 1.93492 1.583764.45911-.82537.43546-1.719684 1.33593-2.493838.50639-.435338.16551-1.134637.63249-1.662558.06305-.070915.00788-.179257.01379-.26987.01971-.295479.2601-.565349.72905-.563379.31723 0 .61279.256081.61082.506253 0 .321086.27585.614595.33694.898254.28767 1.337532 1.31424 2.525356 1.90733 3.797883.13202.287598.39014.470795.68373.669751.32314.218654.69948.348664 1.19405.258051.31789-.057783.36868-.191733.38474-.337065l.00916-.11012c.0033-.036743.00806-.073186.01791-.108315.16748-.588987.80786-1.160245.15566-1.77484 1.13889-.484585.3862-1.306015.89456-1.863484.43151-.472765.05517-.984928.46698-1.422236.47486.122131.77633.311237.72904.624445-.12216.825369.36453 1.581794.75663 2.338219.2128.4117.08276.805671.15172 1.205552.0532.307297-.13004.632323.21675.921892.53988.453067.75465.914013.27585 1.467543-.18128.208805-.12019.535801.26206.754455.22266.12804.53989.309267.75466.193046.77436-.41958 1.88566-.579138 2.43343-1.160246.06699-.068945.08867-.236382.05714-.244262-.95332-.228573-.60468-.435378-.25128-.62226l.11024-.058356c.12528-.067313.23266-.131949.25729-.194.33103-.841128.1064-1.798478 1.24529-2.497777.08275-.049247.08078-.177287.05517-.260021-.16854-.54065-.04235-1.060412.12007-1.578568l.12456-.388616c.06164-.194459.11928-.38937.1593-.58575.31329-1.540427.6187-3.065096 1.72606-4.682347.17339 1.22328.63643 2.245635 1.23937 3.27784.98717-.366393.63447-1.120848 1.38913-1.516789.28176.307297.51624.618535.70934.95932.52215.915983 1.35956 1.034174 2.67381.458976 2.30142-1.006596 4.325-2.178661 5.856-3.699389-.49654-.498374-1.40883-.063036-2.14182-.340786.97929-.342754 1.65119-.845068 2.42161-1.284346.46107-.261991.85909-.506253.31132-.908103-.23644-.173348.05714-.287599.26995-.427459 1.97826-1.300105 3.08562-2.852352 3.6925-4.568096.29753-.841129.85712-1.64877 1.63739-2.444592.50048 1.083421.99505 2.168812 1.50341 3.250263.60688 1.294195 1.33198 2.550963 2.98514 3.524072.2128.126071.60097.321087.55171.405791-.89653 1.50103 1.73 1.609372 2.4886 2.503687-.48866.025608-1.09751.055156-1.72015.088643 0 .082734-.04926.177287.00788.222594.92214.754455 1.85216 1.503 2.79401 2.247606.54974.433368.49654.313207 1.16647-.198956.98519-.752485 1.38124-1.654679 2.12014-2.513536.91426.326996.66402.96326 1.2039 1.329653.61477.41367 1.06993.854917 1.05613 1.436025-.00985.433368.50442.587017 1.0778.756425.7389.220623.96747.559439.21281.941591-.54974.277749-.44531.563379.07487.780063.62461.258051.72707.768244 1.44627.990837.41575.128041.38225.382152-.0867.502314-.5655.143799-.54777.40776-.38423.663841.13202.202895.40196.399881.82954.390032.38619-.00985.36649-.218654.44333-.392002.51428-1.158275 2.22457-1.995464 2.2896-3.541801.95366 1.325713 1.47582 2.46035 2.76445 3.352695.25615.179257.51427.372303.08867.565349-.92871.422862-.53507.53405-.06145.639984l.14324.031929c.19088.043179.37468.090421.47189.161336.35072-.9672 1.33986-1.804388 1.00095-3.01585 1.64725.795822.88668 1.977736 2.01571 2.777497.51821-.295478 1.00096-.54959 1.43641-.833249.1202-.078794.16946-.336845.1202-.350634-1.60193-.468826-.11823-.839159.11625-1.23116.44334-.740666 1.51523-1.315864 1.56252-2.166842.00394-.086674.3192-.167438.48471-.250172.38817.193046-.00788.606716.53004.703239.52215.094553.8118-.200925 1.07583-.399881.46107-.346694.85909-.724907.865-1.203582.00394-.26593-.00394-.522012.1931-.789912.80392-1.10115 1.50537-2.225937 1.131-3.502404.57732.110312.95958.291539.90047.502313-.32315 1.176004.73692 2.164872 1.16647 3.230564.3192.797792.38028 1.674378 1.43838 2.334279.3192.198956.17339.506253-.16354.736727-.24433.163498-.57733.295478-.59506.553529-.01379.187136-.00394.386092.32906.443218.16551.029548.42757-.047277.58914-.120161.17143-.078795.36649-.202896.39211-.319117.23842-1.10312 1.464-2.046681 1.39897-3.197076-.01773-.295479.25221-.565349.72314-.563379.32314.00197.56747.258051.62461.506253.30738 1.36905 1.41277 2.59627 1.95857 3.923953.04531.114252.29161.198955.54776.364423.66796-.433368 1.32016-.856887 1.97236-1.278436-.64629-.539741.39211-.843099.4926-1.276467.03152-.13001.04926-.291539.1793-.378212 1.28864-.854918 1.94084-1.865454 2.09453-3.004031.0197-.147739.15369-.246232.38816-.27578.28768-.039397.46107.106373.4591.218654-.02364 1.51285 1.77532 2.572632 2.62653 3.864858.09852.151679.38423.222594.43152.429429.20295.876585.199.785972 1.46793.653992.95564-.098493 1.37139-.504283 1.97827-.815521.05517-.029547.14778-.082734.13399-.102432-.75663-1.209492 1.45415-1.759082 1.69256-2.799166.25221-1.116908.51033-1.097209-1.37139-1.339502.86106-.807641.86106-.807641-.71525-1.154335 2.00783-.614595 2.28959-1.879243 3.42848-2.799166.62264-.504283.43348-.655962-.89259-.921892 1.9231-1.345412 3.54473-4.845846 4.05703-7.719866.41378.043337.74087.234413.72313.437308-.06108.68354.4197 1.325713.42758 1.977735.01182.801732.34876 1.495121.97731 2.166842.55368.590957 1.09159 1.181914.8847 1.898941-.09063.313207.24039.504283.54974.705209.20492.13198.48669.374272.22463.449127-.76845.222594-.5655.535801-.3133.833249.50048.587017 1.00096 1.181914 1.64134 1.711805.21674.179257.85712.155618 1.02854-.212745l.19402-.419636c.22852-.489197.48445-.972833.97639-1.40642.14187.068945.30541.110312.37043.183196.84924.96523.85515.979019 2.30142.525952.78224-.246232 1.53493-.531861 2.27185-.82537.3527-.139859.86895-.317147.52807-.622474-.15763-.1438-.65023-.151679-1.09554-.242292 2.72111-.986898 4.09447-2.598241 5.79491-4.229281h-3.51714c.46698-.533831 1.40686-.703239 1.66104-1.203582-1.19997-.588987-2.3093.26987-3.83438-.059096 3.32799-1.150396 5.92693-2.552934 7.71407-4.432176-.54974-.216684-1.41277.13395-2.17334-.342755.87486-.26987 1.48371-.638233 2.06497-1.020386.49654-.326996 1.40883-.553529.8453-1.183883-.06305-.068945.28767-.287599.47092-.423519 2.23245-1.666498 3.17232-3.667872 3.92698-5.694854.17734-.482615.75072-.880526.41181-1.648769 1.51326.986898 1.44233 2.009253 1.8837 2.913417.6384 1.307984 1.07977 2.631727 2.69549 3.715148.1052.07023.22744.142485.3542.218124l.19196.116164c.5446.337284 1.05756.747934.57696 1.33615.80786.756425 1.73591 1.430116 3.25311 1.684227.20098.033488.39211.037427.4256.200925-.57535.155619-1.1842.029548-1.77138.074855-.71722.055156-1.03248.423519-.55171.752485.89456.610655 1.90734 1.158275 2.82948 1.757111 1.43838.929772 1.42459.937652 2.9477.019699.266-.159558.54186-.315177.7921-.484585.13398-.092583.29359-.206834.31526-.319116.19113-1.040084.21674-1.024325 1.22755-1.77878 1.11327-.83128 1.68468-1.831966 2.05315-2.850382.06962-.191295.15208-.380839.2393-.569799l.26785-.566297c.22162-.472401.42243-.948449.47607-1.446385.02561-.236383.40984-.527922.9517-.455037.47092.065005.30541.358514.36255.569288.38422 1.398598 1.56055 2.665216 1.85216 4.081542.0335.167438.23054.330936.40196.476705 1.23149 1.051903 2.33294 1.790599 3.77724.065006.09852-.118192.30541-.200926.43348-.311238.07291-.061065.09261-.145769.13596-.224563-.10949-.045735-.26564-.063051-.42682-.0773l-.16132-.014167c-.3998-.037557-.74436-.108773-.38326-.609802.12118-.167438-.0665-.178764-.31182-.179503l-.19086-.000843c-.19382-.003405-.38474-.021318-.46675-.115132.95366-.354575 1.57434-.95735 2.48269-1.311925.88667-.346694.00197-.793852.4591-1.164184.59899-.484585.89849-1.10312 1.48173-1.597554.93199-.787942.81574-1.786659 1.64921-2.673094.80983.362453.80786.914013.98717 1.388748.01103.029154.0215.058772.03168.088687l.05971.181735c.12094.36529.27667.725537.92927.7933.9379.096523 1.34577-.413669 1.75561-.860827.40393-.437308.64826-.709148-.53397-.784002-.23251-.013789-.29162-.648083-1.1113-.563379-.06896-.330936.40196-.498374.71131-.585047.63643-.177287 1.1645-.41958 1.57631-.736727.08484-.065114.21772-.123997.35484-.18315l.16379-.07153c.29375-.132901.52327-.279698.22224-.509624-.39723-.30257-.18443-.451254.06596-.59072l.12569-.069635c.12351-.070205.23257-.144134.25562-.239869.17931-.742636 1.37139-1.189793 1.75365-1.906821.35861-.667781.30147-1.416326 1.06795-2.026981.58915.096523.82559.366393.70737.689449-.25812.701269.30344 1.250859.96352 1.713775.82756.579138.86894 1.434055 1.99994 1.893032.5123.208804-.17536.476705-.04335.709148.09655.171377.36058.307297.67388.311237.37831.00591.49062-.153649.40196-.362454-.04926-.118191-.23448-.303357-.17143-.338815 1.3044-.750515 1.65316-1.837875 2.54968-2.716431.75269.086673.17143.508223.71525.689449 1.1448-.713087 2.31521-1.445874 3.49547-2.172751.23251-.143799.29753-.305327.25615-.492464-.1793-.811581-.20295-.8234.28571-1.128727.37634-.234413.62658-.468826.68372-.817491.02069-.124101 3.59153-.255588 7.19315-.379443l.71969-.024665c3.35075-.114585 6.52393-.221649 6.65818-.308979z" fill="#8a9590" fill-rule="evenodd" transform="translate(0 -425)"/></svg>