<svg height="389" viewBox="0 0 1440 389" width="1440" xmlns="http://www.w3.org/2000/svg"><path d="m-21.2282557 532.001877.0870435.030946c.3073571.285483 7.6137208.63526 15.28173534 1.009727l.98034865.047935.98120924.048186c8.0083694.394484 15.79584427.812142 15.84117927 1.208098.1303697 1.124433.6960061 1.883697 1.553923 2.646576 1.10604.983427 1.0555743 1.023198.6455404 3.653503-.0925204.605603.0546712 1.124433.5824583 1.587223 2.6809904 2.355524 5.3388507 4.729126 7.9378343 7.035841 1.2343069-.583909-.0862123-1.948776 1.6233134-2.227173.6520168.90996 1.1763487 1.889152 1.6850311 2.879644l.3803281.744082c.9522373 1.860977 1.9479256 3.71076 3.7255799 5.167461.1429862.117505-.2775613.715877-.3911091 1.099124-.1997601.670683.0546711 1.187705.9146908 1.171435.7107253-.014462 1.3100055-.450134 1.5307929-1.010543.296486-.752033-1.265848-1.614339-.0988286-2.290445 1.4377678-.833165 2.0994-2.068841 2.7330466-3.324155l.2720306-.538078c.4120193-.805572.8566423-1.596655 1.5326304-2.271531 1.4992518-1.496834 2.7777163-3.27568 2.1910525-5.548047-.2670477-1.041276.2691504-1.916237 1.6064915-2.227173 1.7410667 1.977701 1.6106969 4.398305 2.4223536 6.560398.8726361 2.322985 3.5767566 3.771009 3.9846877 6.16992.1745272 1.034044 2.5169768 1.283517 1.0156222 2.915933-1.1207591 1.216629.9861839 1.717382 1.6800873 2.476645.9357182 1.023198 2.1363813 1.80777 3.580962 2.384449.7044171.280205 1.7726078.824343 1.6127997 1.894543-1.85882-.276588-1.9954979 1.778846-2.523285 1.825848-2.6830931.240434-2.1279704 1.117202-1.2111768 2.536302.9336154 1.446216 1.8588199 3.100326 3.9846876 2.785774 1.5234334-.225713 1.8550651-1.449209 2.1323766-2.664515l.0718579-.31619c.0360607-.15734.0728801-.313053.1129823-.464905.0489517-.183959.0919989-.371588.1330296-.561379l.0805244-.382017c.2671318-1.280017.5598328-2.611404 2.0300669-3.547105 1.8945666 2.865315 1.6275189 6.099416 3.7428729 8.648372 1.3289301 1.599877 2.0081143 3.602886 3.3685855 5.175646.4356058.502619.3342849 1.048473.218626 1.595969l-.0524962.252655c-.132556.67325-.1650445 1.339292.876828 1.920577 2.0606828 1.147934 3.469517 3.096711 5.6332339 4.242837-.4941433.811689-2.7503807-.126544-2.1994635.959926 1.2595398 2.483876-1.2511288 1.701112-2.2057716 2.272367.1009314.249472.1429861.526061.3069996.726724.0841095.101751.1824662.196419.2852612.2886l.3118918.273674c.1527948.137702.2935066.280147.3890309.442846 3.2802706 5.58601 5.7783228 3.192522 8.5791692-.211509.384801-.47002.8326841-1.003313.9104854-1.542028.6602596-4.584505 3.332839-8.686336 4.2033723-13.212993.1324725-.681529-.2418148-1.634224.8284786-1.84031 1.225896-.236818 2.0985321.703223 2.155306 1.469717.2207874 2.903279 1.5244847 5.573356 2.2331073 8.362745.8368895 3.29195 2.1363813 6.538705 4.6617691 9.223244 2.2982921 2.444105 2.3571688 2.393488 2.7903327 5.763172.0462602.363361.4100338.730339.7170335 1.028621.2817668.275685.5803556.538715.8839383.797678l.9139023.773274c3.4569004 2.970167 3.4253594 2.944858 6.6909104-.06508 2.098533-1.934314 4.394722-3.709544 6.428069-5.69086 1.091321-1.062969.374287-2.25429-1.255334-2.433259-.410196-.044499-.825169-.036968-1.241123-.019853l-.62419.027555c-.727972.028154-1.453131.020666-2.155121-.249943.075698-.527869.506759-.538716.965156-.64899 3.444284-.820727 5.551227-3.004514 7.384814-5.450427-1.474019-2.579688 1.177533-4.103638 2.550621-5.414272 3.079222-2.939901 4.27994-6.427881 5.443154-9.976532l.268607-.819774c.134808-.410204.271002-.820717.411411-1.230789.235506-.687803.406752-1.397225.57567-2.1216l.127219-.545981c.514872-2.194307 1.148138-4.508203 3.571976-6.761748-.767499 2.491107.531993 3.778239.937821 5.336537 1.711629 6.562206 3.843804 13.043062 8.915607 18.437449.416342.442903 1.215383 1.144318 1.072396 1.372097-.906898 1.441963-.14057 2.229075.785074 2.93994l.233855.176463.235235.175295c.234175.17538.462536.352023.66143.538967 1.32052 1.238323 2.704121 2.431451 4.687002 3.304604-1.724244 1.542028-3.683996.410364-4.933022 1.111779 4.060386 6.081339 9.960668 10.622458 17.513701 14.348272-3.459003 1.066585-5.980185-1.715574-8.703231.193432.57615 1.617954 2.712532 2.165708 3.770209 3.890321h-7.984095c3.862729 5.284112 6.976884 10.497722 13.154726 13.69386-1.009314.294666-2.125867.321783-2.487538.784572-.769602.987042.401623 1.560105 1.200663 2.013856 1.675882.949079 3.381202 1.876465 5.160118 2.671884 3.282373 1.46791 3.299195 1.420908 5.227406-1.699304.145088-.23501.51517-.368785.841095-.592948 1.431964 1.802346 1.982881 3.875859 2.653654 5.913216.39111 1.187705 1.846204 1.263631 2.336142.685145 1.452991-1.717382 2.590572-3.644465 3.726051-5.542624.57615-.965349 1.036649-1.9777-.712828-2.697193-.59087-.242241.048363-1.026813.513068-1.453447l.247753-.228043c.616806-.570866 1.183345-1.160112 1.003375-2.053363-.471013-2.324793.748575-4.233798 2.006012-6.148227 1.427759-2.172939 2.195258-4.421805 2.218388-7.017764.018925-2.106052 1.110246-4.186795.973568-6.403122-.042055-.65622.700211-1.27267 1.640135-1.411868 1.164917 9.304593 4.84681 20.635697 9.212093 24.990615-3.01112.862307-3.442181 1.355828-2.027039 2.984629.718435.827557 1.286629 1.741039 1.830323 2.671476l.324282.559746c1.293417 2.242706 2.590573 4.503624 5.629729 5.829322-3.578859 1.126241-3.578859 1.126241-1.623313 3.742085-4.272763.782764-3.688202.714069-3.112051 4.331417.206157 1.291209 1.070163 2.348821 1.961157 3.382124l.297133.343821.293939.343743c1.210884 1.434491 2.203402 2.911805 1.287369 4.992664-.029438.068695.180836.238626.309103.330822 1.377293 1.012351 2.317216 2.321177 4.489344 2.64296 2.882854.428442 2.874443.717685 3.332839-2.118707.10724-.667067.754883-.900269.979876-1.386559.60667-1.316419 1.426231-2.55784 2.26331-3.793349l.457152-.673743c1.673981-2.471284 3.275945-4.969159 3.242902-8.046294-.002103-.361554.393212-.83519 1.042958-.712261.531992.101235.838992.415787.883149.893038.349055 3.689659 1.827279 6.961723 4.752187 9.727612.298589.282012.338541.80265.407931 1.222052.0764.469418.389474.891432.718591 1.310031l.179784.228253c.595741.761476 1.111906 1.538103.222384 2.594279 1.480328 1.368482 2.960655 2.736964 4.478831 4.139794.580356-.531485 1.139684-.806266 1.244821-1.175051 1.23641-4.300685 3.744976-8.272356 4.44729-12.706817.128267-.806265.68339-1.634224 1.417245-1.637839 1.068191-.007231 1.680087.869537 1.642238 1.822232-.080389 2.006208.68971 3.817433 1.502065 5.619385l.348382.772239c.577095 1.287923 1.116839 2.58465 1.324687 3.95786.056774.377824.502554.780957.89156 1.034045.367979.238626.958849.484482 1.339444.390478.75278-.188008.77591-.831574.746472-1.437177-.042055-.836998-.79904-1.260016-1.349957-1.793308-.7675-.742994-1.101835-1.737267-.372185-2.384449 2.399224-2.133169 2.538004-4.96956 3.265551-7.552864.259618-.92124.621364-1.824225.998312-2.725342l.425895-1.013832c.893298-2.142298 1.688476-4.308718 1.221037-6.718777-.132472-.685144.735958-1.269054 2.045964-1.630608-.849506 4.13437.744369 7.773412 2.569545 11.340142.44578.869538.426856 1.695689.435267 2.557995.014719 1.547451.916793 2.774927 1.968162 3.89936.59928.639951 1.253232 1.594454 2.441278 1.292556 1.223794-.312744.321719-1.650494 1.202766-2.275983.378493.263935 1.091321.524254 1.101835.806266.107239 2.760465 2.542209 4.622468 3.549421 7.017764.150564.358655.528169.711662.909776 1.067957l.152327.142714c.908901.857591 1.669551 1.740974-.801364 2.773655-.109342.047002 0 .878576.275459 1.133471.986184.91654 2.085915 1.742691 3.261346 2.699001 1.038297-1.049484 1.371932-2.302787 1.650852-3.593567l.11019-.517917c.367844-1.730422.792477-3.48804 2.814515-4.878557-.7675 3.922861 1.480327 6.629093 2.273059 9.763767.203727-.211509.573687-.358087.969312-.489141l.183906-.059564.275975-.087573c1.06231-.340364 1.918762-.70594-.173859-2.060915-.963054-.623681-.37639-1.254593.206069-1.829464 2.922805-2.892432 4.110851-6.565821 6.274568-10.857467.145089 5.003907 4.030948 7.719178 5.20007 11.470302.174528.560408.128267 1.234707 1.005109 1.265439.971465.034347 1.587567-.603796 1.884053-1.263632.372184-.827958.412136-1.684842-.872636-2.151246-1.063986-.386863-1.139684-1.207591-.195555-1.623378 1.629622-.719492 1.863025-2.369987 3.284476-3.208792 1.179636-.695992 1.417245-1.623378.170322-2.523647-1.715834-1.240131-1.196458-2.333832.483629-3.047901 1.297389-.55137 2.468614-1.044891 2.445484-2.447721-.029438-1.883696 1.003006-3.310027 2.397121-4.6532 1.225896-1.182282.66026-3.24314 2.733559-4.304301 1.680087 2.782158 2.577956 5.705323 4.815269 8.140389 1.520279 1.655918 1.39832 2.048204 2.647346.641759 2.138484-2.40795 4.249633-4.835786 6.34396-7.274468.130369-.150045.016821-.45375.016821-.7213-1.410936-.104851-2.792435-.206086-3.90268-.287436.53511-.898212 1.478102-1.551273 2.463553-2.170135l.329555-.20531.329693-.204514c.054793-.034115.109467-.06827.163958-.1025l.32426-.206573c1.765888-1.144307 3.196847-2.449406 2.041139-5.215201-.115651-.276589.767499-.907501 1.251129-1.314249 3.755489-3.147328 5.39983-7.218427 6.777123-11.405223 1.1523-3.503458 2.277265-7.015956 3.414846-10.52303 1.770505 2.576073 3.042661 5.1883 3.71764 7.908995 1.379396 5.558893 3.892167 10.579071 8.383614 14.789368.485733.45375 1.1523.820727.616102 1.382944-1.246923 1.303402-.340643 2.093398.704417 2.944858 1.751581 1.422715 3.276066 3.0479 5.498659 4.157871-1.665368.898462-3.736564-.509791-4.863632 1.100932 3.473723 4.926174 8.070307 8.71526 13.29561 11.978286 2.983784 1.863811 4.888864 1.476948 6.072706-1.485987.441575-1.104548.973567-2.111476 1.612799-3.109365 1.711629 1.281709.908383 3.725814 3.154107 4.909904 1.366779-3.338952 2.416045-6.647171 2.813463-10.606188 2.512771 5.235302 3.206674 10.170515 3.919502 15.158153.395315 2.753234 1.534999 5.417887.914691 8.26151-.058876.271165-.060979.679722.126164.842421 2.58847 2.26152 2.077505 5.360039 2.830285 8.084348.220788.80265 3.450592 1.744498.262842 2.830968-.073595.025309-.02313.56764.126165.793611 1.24482 1.878274 3.770208 2.397104 5.525994 3.754739.49204.377824 1.211177-.211509 1.715834-.62368.86843-.708646 1.007211-1.768.597177-2.442298-1.091321-1.793308-.603485-3.282911.626616-4.752628.490201-.586395.511392-1.215867.488127-1.849133l-.015898-.380102c-.009627-.253285-.012781-.505921.017709-.755394.157705-1.292555-.136678-2.570649.344849-3.89936.89156-2.451336 1.995498-4.900865 1.715834-7.569134-.10724-1.015967.580355-1.630609 1.656957-2.02651.937821 1.419099.082007 3.073209 1.061882 4.606198.419783.656714.461143 1.426017.467949 2.214814l.002115.395591c.007663 1.255121.072379 2.520212 1.559078 3.42574-.986885 1.325698-.669138 2.588727-.235507 3.847471l.132378.377553c.177968.503388.355457 1.007025.456389 1.514646.136678.688761-.145089 1.520335.937821 1.804155 1.118656.291051 1.976573-.130159 2.708326-.83519.66867-.645374 1.251129-1.241938 1.556026-2.172939 1.345752-4.116293 3.675585-7.961421 4.327433-12.292838.138781-.920155.7675-1.865619.765397-2.906894-.002103-.813497.666568-1.639648 1.389909-1.643264 1.063986-.005423 1.608595.86773 1.652752 1.825848.014719.292859-.111445.641759.031541.873153 1.061883 1.713767.285972 3.971672 1.43617 5.385348 2.043861 2.507377 1.991292 5.401617 3.03425 8.069886 2.729354-.775533 1.116554-4.226567 4.392619-5.126836.035746 2.510993 1.127067 4.425421 3.307606 5.965641 3.303401-3.895744 5.618515-8.238008 7.908396-12.589311.132998.298734.242472.619048.347116.943684l.155681.488038c.26122.811608.550674 1.596293 1.160468 2.084391 1.507663 1.203975 2.205246 2.763177 2.86866 4.329835l.30659.722337c.567993 1.320611 1.196989 2.608254 2.357053 3.652241.298589.269358.538301.992466.351157 1.191321-1.915594 2.050011.273356 3.400416 1.080807 4.960521.817965 1.576376 2.266751 2.075321 3.757592 1.260016.994595-.542331 2.199464-1.236515 2.287779-2.256097.084109-.980126.570481-1.819458 1.078042-2.661226l.30403-.506499c.550872-.93332 1.035161-1.904249.945658-3.10343 1.92779 1.159865 2.691504 2.725828 3.320374 4.238802l.185645.451843c.091829.224668.18294.44711.276806.665778.578253 1.343173.870533 2.603189 2.771408 2.561611.944129-.019886-.989864 3.090383-3.151478 6.019422l-.342813.460492c-1.719657 2.290097-3.494237 4.358615-4.01955 4.576173l-.003469.000218.046484.040139c1.269005 1.123387 8.226199 8.215861 8.673583 8.305845l.018933-.003107-20.743505 161.723123-407.3906802-56.491011-46.8658144-111.181484c1.3920123 3.315451 2.1700252-164.015376 5.0928304-161.294682zm1465.8845357-60.967761c3.96449-3.833894 1.59926 316.654319 3.34372 361.778402l-292.90286.187482c-9.04004-22.325056-31.00465-43.63687-75.01805-58.945058-250.905374-1.183873-345.522806-20.549248-359.545814-25.539629-9.124215-3.212466-10.729791-18.26787 8.61708-28.667833h2.447292c.955265-.682327 1.93429-1.382588 2.925069-2.091868l.662129-.474091c.331803-.237616.664616-.476014.997994-.714863l1.001382-.717574c.445416-.319231.891046-.638678 1.335836-.957558l.666422-.477798c8.540941-6.123779 16.575081-11.892665 16.583182-11.723974.107319 2.376171 1.07319 4.244668 3.97501 4.30997 2.914446.063196 3.364764-1.944331 4.252776-4.09089 1.203656-2.904912 2.110606-6.233237 5.807849-8.548319-.286184 4.002416 3.276384 6.412292 3.575194 10.010254.134674 1.626245 1.984348 2.734282 3.512065 3.602174 2.28947 1.299732 4.513708.501356 5.769971-2.013847.316469-.63415.770485-1.24681 1.222676-1.861916l.208066-.284156c1.241528-1.707021 2.304626-3.461028.229545-5.770286-.286183-.318087.079963-1.472468.538699-1.900094 4.212795-3.941327 3.863482-10.050278 8.495031-13.892598.928795-.771995 1.372939-2.008975 1.770235-3.291662l.181635-.593728c.181497-.59392.367362-1.183835.600638-1.728525 3.518378 6.947352 7.070424 13.875745 12.143875 20.094236 3.34793-2.45622 5.025052-5.514908 5.079763-9.521538 2.676258.764179 3.228218 2.679848 3.789096 4.492217l.135874.432343c.460766 1.430248 1.036461 2.73014 2.819289 3.257222 1.601367-4.257307 1.521404-8.876938 4.658905-12.879354 1.767606-2.253993.574472-5.86038 2.205299-8.594663.121582-.204802.115866-.467468.090739-.741043l-.032566-.330521c-.009358-.109916-.014918-.218571-.009774-.322962.069442-1.529344.904846-2.921764 2.537777-2.913337 1.108963.006319 2.137962 1.322903 2.133753 2.622635-.004208 1.662056.963767 3.172442 1.1763 4.640697.999539 6.911541 4.576838 13.049983 6.645358 19.618159.467153 1.485107 1.361477 2.437261 2.388372 3.467356 1.123693 1.126996 2.44098 1.798981 4.158083 1.333437 1.664496-.450799 1.231012-1.780022 1.441441-2.877527.118704-.623534.30718-1.243257.512175-1.861878l.156011-.463801c.760983-2.241115 1.564091-4.476646-.127383-6.835641 2.241987-1.419255 2.378456-3.391023 2.393626-5.358052l.00225-.453591c.005711-1.359002.02644-2.695186.720582-3.823647.71857-1.169677.793613-2.383682.83377-3.580027l.022103-.650428c.043265-1.079885.149156-2.13586.774954-3.121352 1.653975.634067 2.706121 1.613606 2.544091 3.235638-.36568 3.626594.809367 7.000968 2.011052 10.340581l.313091.870557c.103902.290019.207009.579917.308327.869839.417834 1.192035.457487 2.358743.455276 3.518494l-.003984.772338c-.002338.643092.005471 1.285297.081094 1.929765.187282 1.594647 1.851778-10.244079 3.057538-8.746332 1.889655 2.344573 3.610967 4.219389 1.938054 7.080063-.631288 1.07644-.418754 2.767987.913263 3.899196.776484.657239.90695 2.104429 1.660287 1.497747 2.697704-2.165518 2.228447-2.022274 4.141249-5.019873.227264-.358111-1.08792-1.217577-1.047938-1.33133.667061-1.904308 2.377851-4.760769 3.899255-5.329533 4.21069-1.577795.157822 4.122489 4.132831.513994.286184-.26121.281976-.912129.191491-1.346075-.6128-2.915595-.107254-5.714535.493019-8.509869l.202195-.931799c.270528-1.242634.537301-2.487037.710454-3.743134 1.094232-7.960595 2.159005-15.836929 6.018278-24.193553.608141 6.319605 2.222133 11.600688 4.320114 16.930221 3.446831-1.889562 2.21582-5.790865 4.841978-7.83631.982705 1.59254 1.79917 3.199826 2.476753 4.96089 1.816005 4.72917 4.743076 5.346385 9.324122 2.374064 8.025774-5.207354 15.081468-11.257322 20.415851-19.11891-1.731833-2.572079-4.909316-.324406-7.468136-1.758957 3.413163-1.769489 5.755241-4.362633 8.442424-6.635584 1.605575-1.356609 2.994409-2.62053 1.083711-4.69968-.824883-.895277.199907-1.483.942723-2.207648 6.897872-6.71774 10.757146-14.733105 12.874065-23.603723 1.037416-4.343675 2.9902-8.512508 5.711051-12.622357 1.744459 5.59917 3.472083 11.202552 5.241794 16.795402 2.114814 6.679822 4.639966 13.178482 10.403624 18.202568.74492.648813 2.100085 1.655736 1.923324 2.098109-1.903538 4.734341.764475 6.786873 3.733455 8.718172l.380324.246088.572299.369251.379862.247974c1.450419.955227 2.820595 1.972749 3.61006 3.352639-1.702373.128498-3.8235.290702-5.990922.457118 0 .427626-.172552.914236.025252 1.154381 3.217464 3.89077 6.458075 7.764687 9.742876 11.609114 1.917011 2.243459 1.729729 1.617818 4.065495-1.023776 3.434206-3.886557 4.814622-8.552532 7.394485-12.993107 3.181691 1.693654 2.314723 4.984061 4.195961 6.86941 2.137961 2.144452 3.726702 4.421616 3.680408 7.425535-.031424 2.09193 1.530092 2.915856 3.36034 3.732321l.39582.175301c2.57776 1.139636 3.37529 2.885953.74071 4.863989-1.912798 1.436657-1.55086 2.917551.26094 4.029801 2.18215 1.33765 2.53988 3.972925 5.04609 5.120987 1.44775.663558 1.33202 1.971716-.30302 2.588931-1.97382.745713-1.90859 2.112854-1.33833 3.433652.45663 1.053267 1.40146 2.07283 2.8913 2.01806 1.05398-.037917 1.24057-.705454 1.401-1.423028l.05366-.24025c.0275-.120256.05686-.240113.092-.356889 1.79496-5.984665 7.75853-10.319914 7.98368-18.305788 3.32268 6.848345 5.145 12.710832 9.63346 17.32625l.17787.18484c.82413.867818 1.51847 1.806958.13777 2.736923-3.19362 2.149798-1.91039 2.738794-.29245 3.280033l.22232.073652.33614.111232c.67113.224969 1.3195.470719 1.66152.840841 1.21839-5.003021 4.66943-9.32563 3.48892-15.584145 5.74472 4.105636 3.09542 10.214587 7.02834 14.347609 1.80548-1.525132 3.49313-2.843822 5.00822-4.305758.42086-.406561.5913-1.735784.42296-1.809513-3.46934-1.508822-2.78908-2.816852-1.58021-4.076094l.18026-.183949c.18319-.183635.37392-.366385.56084-.548725l.18523-.182221.18017-.182054c.38306-.394346.71271-.788259.87353-1.186586.53094-1.31428 1.32122-2.527998 2.13656-3.733992l.44581-.657606c1.41068-2.08353 2.76904-4.194374 2.86775-6.810954.01683-.446585 1.10896-.863679 1.68974-1.284986 1.35517.998497-.03156 3.134524 1.84757 3.631666 1.82442.482396 2.82817-1.038522 3.74985-2.062298 1.61189-1.794768 2.99862-3.753845 3.02177-6.22481.01052-1.373461-.01684-2.692152.66706-4.080358 2.80292-5.691858 5.25021-11.499574 3.94555-18.099348 2.0117.577191 3.34372 1.508279 3.14171 2.601571-1.13211 6.07314 2.56723 11.177274 4.06128 16.692182 1.11738 4.122489 1.33202 8.649432 5.01664 12.053592 1.11738 1.032202.60603 2.62053-.57237 3.806509-.84593.848933-2.0096 1.527238-2.07273 2.860674-.04629.969006-.01052 1.994889 1.14684 2.296123.58079.149564 1.49194-.244358 2.05589-.625641.59552-.404454 1.28152-1.046948 1.3699-1.651523.82699-5.69607 5.10291-10.570592 4.87565-16.51734-.05892-1.518811.87749-2.919657 2.52094-2.907018 1.12369.00632 1.97803 1.327117 2.17373 2.61421.58127 3.810073 1.96607 7.406988 3.41686 10.987083l.62365 1.533869c1.039 2.55664 2.0579 5.119009 2.78793 7.758659.16413.58983 1.02058 1.027989 1.9128 1.876922 2.33155-2.241353 4.60419-4.423723 6.87683-6.608199-1.50247-1.855155-.39374-3.170101.6171-4.505956l.20006-.267617c.42716-.581159.80202-1.173269.90415-1.821988.10521-.669878.16624-1.499853.62497-1.948545 4.49477-4.417403 6.7611-9.639503 7.29769-15.527268.06944-.762566.54081-1.263921 1.35517-1.424018 1.00164-.198014 1.60768.558232 1.60136 1.135423-.05059 4.944338 2.44156 8.951104 5.03013 12.919636l.50156.767867.50003.768362c1.16187 1.794546 2.27904 3.604963 3.12617 5.514085.3451.779418 1.34043 1.150168 1.50457 2.213968.70493 4.526943.69231 4.065612 5.11974 3.383095 3.3332-.513994 4.77675-2.60157 6.89156-4.217283.1957-.149564.51976-.421307.47347-.530847-1.5858-3.744997.55629-6.266014 2.70231-8.845272l.35707-.430635c1.30471-1.582587 2.53362-3.213527 2.83685-5.185454.8838-5.774012 1.78233-5.664473-4.77885-6.915754 3.00493-4.173046 3.00493-4.173046-2.49149-5.972027 6.99888-3.172441 7.98159-9.704806 11.95239-14.461361 2.17163-2.599464 1.51088-3.387308-3.11436-4.762876 6.70428-6.951565 12.35852-25.03406 14.14506-39.885131 1.44565.223293 2.58407 1.207045 2.52095 2.253993-.21254 3.536872 1.46669 6.858877 1.49404 10.2188.03578 4.143554 1.21418 7.73309 3.40475 11.200446 1.93174 3.054476 3.80456 6.102632 3.08279 9.814346-.31565 1.615712.84382 2.60789 1.92122 3.640092.71125.682518 1.69185 1.933799.7849 2.321402-2.68297 1.145955-1.97804 2.763773-1.09213 4.301544 1.74446 3.03341 3.48892 6.106844 5.71947 8.84534.75334.924769 2.98599.802589 3.58782-1.091185 1.029-3.250384 1.87703-6.561856 4.07601-9.43517.50083.353898 1.06688.566658 1.29204.943728 2.95864 4.981955 2.98599 5.053577 8.02367 2.713217 2.73137-1.270241 5.35122-2.751135 7.92687-4.265734 1.2247-.722541 3.02177-1.638884 1.83915-3.214572-.55343-.739393-2.26842-.781524-3.81929-1.251281 9.48826-5.102028 14.27132-13.422841 20.19911-21.8553h-12.25751c1.62452-2.751134 4.90301-3.627453 5.78681-6.210064-4.18123-3.048156-8.05103 1.394526-13.36226-.307554 11.59676-5.946748 20.65784-13.193228 26.89286-22.900141-1.91701-1.120676-4.92615.686731-7.57545-1.775809 3.04281-1.392419 5.17025-3.296727 7.19668-5.274763 1.73183-1.689441 4.91353-2.854355 2.9418-6.113164-.21884-.362324 1.00796-1.483001 1.64766-2.190796 7.78589-8.607302 11.06017-18.952494 13.68843-29.426186.62287-2.487817 2.61774-4.539582 1.43934-8.514614 5.27125 5.095708 5.02926 10.383111 6.56539 15.046979.21203.644198.41782 1.289046.62151 1.933412l.30447.966046c.05065.1609.1013.321735.15201.482486l.30555.963369c1.69027 5.291482 3.58906 10.453847 8.01844 14.851539 2.1085 2.091789 6.17821 4.52273 3.91609 8.638899 2.81555 3.905516 6.04984 7.389725 11.33793 8.699989.70494.174843 1.36779.193802 1.48353 1.036416-2.00118.802589-4.12862.155883-6.1761.387602-2.4978.284382-3.60045 2.184477-1.92332 3.88445 3.11856 3.159802 6.64746 5.993092 9.86703 9.079165 5.01453 4.805006 4.96613 4.847137 10.27315.105327.928-.827868 1.89597-1.628351 2.76294-2.506776.46926-.473971 1.029-1.061694 1.10055-1.643097.66495-5.377984.75544-5.295829 4.28434-9.195025 3.8761-4.286799 5.87308-9.466768 7.1567-14.722572 1.09002-4.453215 3.0912-8.712628 3.42789-13.349112.09048-1.22179 1.42882-2.721643 3.31426-2.344573 1.11377.224421 1.20725.996877 1.21539 1.809899l.00083.2575c.00019.30061.00217.599474.05267.871217.58794 3.178256 1.71201 6.226007 2.8728 9.265994l.63381 1.658142c1.26288 3.317695 2.46142 6.652707 2.94726 10.164385.11994.861572.80805 1.710506 1.39935 2.460432 4.30118 5.432754 8.1352 9.254008 13.17077.337046.343-.606682 1.06267-1.034309 1.51509-1.60518.25462-.320193.31775-.760459.47136-1.158594-.41845-.260608-1.03204-.344612-1.65001-.42412l-.23156-.02994-.22975-.031537c-1.3685-.198038-2.51767-.591143-1.27448-3.139749.44522-.912462-.30393-.929793-1.224-.930355l-.28012-.000544c-.75521-.004794-1.55431-.05507-1.87327-.600552 3.32478-1.832685 5.48799-4.939824 8.65075-6.774616 3.09751-1.794768.00631-4.101424 1.60136-6.014157 2.08957-2.51099 3.13119-5.706603 5.17025-8.259723 3.24903-4.069826 2.83869-9.230836 5.74893-13.804123 2.82186 1.86639 2.81765 4.718638 3.44262 7.168538.03215.125573.06292.25281.09286.381214l.08785.388214c.46097 2.083834.84712 4.338919 3.37976 4.726521 3.26586.503462 4.68626-2.136026 6.11928-4.442682 1.40777-2.266631 2.25791-3.66537-1.8623-4.050866-.80805-.075836-1.02058-3.353604-3.874-2.913338-.2441-1.7084 1.39725-2.574186 2.47885-3.024984 2.21793-.918449 4.06129-2.169731 5.49642-3.802295.22861-.260007.55676-.500958.91433-.738213l.24198-.15779.24608-.157707c1.1919-.763676 2.366-1.559848 1.17747-2.902363-2.3042-2.603677 1.29204-3.001812 1.56139-4.651229.62287-3.831787 4.77885-6.140549 6.11718-9.84805.34307-.952445.57629-1.935988.79035-2.927282l.15836-.744559c.4991-2.36006 1.018-4.730909 2.77168-6.799744 2.05168.495036 2.87657 1.893775 2.46412 3.555831-.89853 3.625346 1.06267 6.464955 3.36477 8.853766 1.17202 1.216063 1.89084 2.66784 2.59564 4.122289l.32589.670626c.92962 1.895835 1.95083 3.73493 4.04578 4.996152 1.06451.640387.65052 1.386228.23405 2.13787l-.12987.237438c-.23195.435229-.41265.868888-.25569 1.281637.33879.893171 1.25837 1.588327 2.3526 1.611499 1.31939.027385 1.71079-.79627 1.40357-1.868497-.17466-.613001-.82068-1.565155-.60183-1.752637 4.54948-3.876024 5.76155-9.494152 8.89274-14.033735 2.62405.444479.59552 2.622636 2.49148 3.553725 3.99185-3.680117 8.07418-7.467666 12.19017-11.225725.81016-.739393 1.03742-1.567262.89222-2.534161-.62918-4.198324-.70493-4.263627.99323-5.832995 1.31729-1.217577 2.18636-2.426728 2.38416-4.223602.06814-.613905 3.48597-1.260291 7.15602-1.873877l.73645-.122261c3.81291-.62922 7.67463-1.218769 8.1675-1.696618z" fill="#51645a" fill-rule="evenodd" transform="translate(0 -472)"/></svg>