<svg height="490" viewBox="0 0 1440 490" width="1440" xmlns="http://www.w3.org/2000/svg"><path d="m816.333737 877.854584c6.185827-7.587002-6.865246-20.91642-9.545179-30.747559-1.84731-3.480521-4.835868-2.024385-6.634332-3.471642-1.052434-1.453917-.921435-3.353997-1.77404-4.841209-3.246116-5.678044-5.304357-11.01425-5.217765-18.297151.117678-9.837799-5.277713-19.10069-10.324513-28.192662-6.050387 2.574875-5.379848 8.945471-8.415033 12.246194-14.796249-10.861089-18.062348-28.558915-25.686945-45.937102-7.238261 9.196299-7.498039 19.151743-11.847657 27.25372-2.855338 5.31179-6.68984 9.862216-10.402224 14.439278-1.760718-5.848962-3.468148-12.075276-7.953206-17.995269-7.347057 17.378187-10.493258 35.076013-24.747747 45.937103-2.924169-3.300724-2.278054-9.67132-8.106408-12.246195-4.862513 9.094192-10.060295 18.354864-9.947058 28.192662.084372 7.282901-1.898378 12.619107-5.026817 18.297151-.8193 1.487212-.694962 3.387292-1.70743 4.841209-1.734074 1.447257-4.613836-.008879-6.392317 3.471642-2.582238 9.831139-14.061321 17.817691-9.196588 30.747559-1.740735 2.903394-3.301624 5.278494-7.173871 6.226315-3.914434-1.393985-8.341763-3.180859-11.723319-7.578124 5.04902-4.053209 14.083525-2.512723 13.590612-12.67682-3.661316-4.552646-8.66815-8.466012-11.441337-14.203988-.472929-2.905613 3.576945-3.851214 2.127072-8.821166-10.777459-8.295093-9.938176-25.482384-20.87772-37.147012 5.801711 1.476113 10.817426 3.345118 13.432969-3.436127-2.746542-7.351712-11.163796-10.013156-13.57729-17.662311 3.308285.146502 6.454486.694773 8.470542-2.397297.974722-2.712498-.166525-4.841209-1.767379-6.401672-11.747742-11.460414-16.354918-26.454621-19.736473-42.114745-.650555-3.00994-1.176773-6.397233-6.778654-6.466044-3.770112 19.198357-3.34825 34.956148-16.576949 50.143472 1.789582 3.489399 5.79949 3.433906 6.518875 6.872252-2.135953 6.26627-10.231259 8.80119-10.755256 15.975324 2.824254 4.856747 7.591292 3.780183 11.703335 5.140871-2.1848 3.280746-10.046972 9.484863-13.821526 9.680199-3.832281-3.209715-2.222545-9.409393-7.626817-12.039761-5.93049 9.180762-8.972335 19.358177-10.98395 29.966218h-3.288302c-.244236-2.870097-2.664391-4.108701-3.987705-6.126426.828182-1.369568 2.600001-1.962233 2.810932-3.802381-1.891717-.486118-3.523656-1.300755-4.547226-3.358436 1.005807-.907865 2.053801-1.853466 2.966355-2.679202-2.837576-6.557052-5.58856-12.905451-8.224086-18.994142.694962-1.362908 1.958327-1.857906 1.787362-3.775744-.861486-1.052147-2.004954-2.443911-3.121777-3.8046.581725-.663696.95474-1.089882 1.589753-1.815731-5.242189-2.419494-3.372675-9.511499-7.755597-12.714555-2.988558 4.499372-1.922802 11.194047-7.384802 14.030849-3.119558-1.948914-4.660464-5.365063-8.04646-6.250731-.184287-.048834-.13988-1.036609-.195388-1.553804.734927-2.588193 4.77592.672575 4.891376-3.780183-7.948765-1.289657-13.390782-7.460478-20.002911-12.430431.504014-2.847901-.552861-5.398359-3.914434-5.613671-2.757644-.177578-3.707943-1.775776-4.549447-3.977738.608369-.734728 1.025791-1.553804 1.680787-1.98443 4.063195-2.672543 9.156622-1.334052 13.637238-3.773524-6.667637-3.456104-14.26115-4.170853-20.229385-8.876659.222033-1.318514-.47737-2.876757 1.147909-4.022133h9.802736c.044407-2.386199 2.715458-3.531574 2.393511-5.913334-4.698208-3.271867-9.89599-5.70024-13.119903-10.790058 1.809565-.71031 3.667978-1.254142 4.811445-3.371754-2.318019-2.328486-4.374041-5.278494-7.147227-6.952163-3.219472-1.940035-4.029891-5.398359-6.769772-7.560366 2.817593-2.332925 2.207003-4.994369 2.204783-7.480456.832622-1.82239 3.101794-2.497185 3.392657-4.714685 2.224766-8.124174-6.465588-7.939938-8.990098-13.098567 1.851752-1.043268 5.029038-.457262 6.163624-4.943316-11.328101-8.3972-16.798982-22.1861-23.995057-35.386774-5.943811 8.63915-8.286255 18.450312-14.94279 25.506801-2.380189 3.09207-6.119217 4.976612-7.669004 9.926587-.785995 1.931157 1.869514 4.668071.430743 7.484896-1.425449 3.316261-6.079251 4.181952-6.159183 8.31507 1.152349 3.103169 4.591633 3.629242 5.204443 5.356184.515116 11.822228-7.868833 16.452564-13.2398 21.360365-1.820667 3.740228.06883 5.78015 0 8.039825-2.000514 4.2774-9.0012 4.115361-8.73254 10.374971 2.151495 4.526008 7.557987 4.033231 11.310337 7.456039-5.386509 2.390638-9.505213 5.509344-14.984976 3.769084-1.103502-10.192954.652776-21.300432-9.307604-27.41798-4.223059.670356-5.493085 3.922245-7.631259 6.079813-.506234.619302-.983604 1.260801-1.389923 1.960013-3.841163 6.104229-1.480957 14.139615-4.64048 19.80656-5.297697 9.513719-7.655683 19.500239-9.038945 30.063886-.590607 4.528228-3.008541 7.615859-8.002053 9.000964-1.250043-12.177383-7.697868-22.010742-9.34979-33.606559-.770453-5.413897-1.434331-13.23397-9.68284-14.195109-.75047.286344-1.405466.723629-1.949445 1.334052-4.036552 5.604793-4.960207 12.36384-5.903846 19.311563-3.585825-1.729162-5.404272-4.084285-6.436723-6.996557.097694-2.608171 3.075151-3.664758 2.66439-6.301785-.259778-2.683641-2.822033-4.2774-3.13954-7.489335-.113236-2.355122 2.779848-4.661411 1.465415-7.737943-1.238942-2.326266-3.852265-3.322921-5.239968-5.928872 1.028011-9.165223-8.93903-13.240629-9.836042-22.037379.894792-1.793533 4.223059-1.247482 4.558329-4.128678-1.143468-4.139778-5.419815-5.083159-8.044239-8.046485 2.278053-.126524 3.445945-1.120959 3.82118-3.078751-4.949106-9.234035-11.805471-17.107381-16.110682-28.858578-6.765331 10.505934-8.825793 20.687789-15.850903 25.793144-1.831768 3.56931 1.290009 5.440534-.583945 8.909956-.732708 1.251922-3.81896 2.559337-3.330489 5.791249-.013322 3.447225 4.855852 1.422841 4.780361 4.887823-3.379335 5.480489-6.245775 11.427118-10.670884 14.607977-1.918361 2.854559-.439624 4.98549-1.234501 6.88779-1.287789 2.821264-5.3199 3.449445-5.382069 6.379475.175406 4.792375 4.513922 4.545987 6.083692 7.21187-2.502307 2.279652-6.405639 2.794627-7.047313 5.968827-.321947 3.789062 4.476176 4.177513 3.641334 7.451599-1.731854.834615-3.052948.275246-3.306065-.736947-2.86422-11.396041-5.66627-22.803182-9.423061-33.932857-.235354-.699212.20427-1.682548.122118-2.546019-1.42989-8.073121-5.968235-14.463694-10.513241-22.448027-3.896671 7.622518-7.311532 13.886568-6.680959 21.180567-2.970796-8.295093-4.203076-17.065206-4.418448-26.181596-.115457-4.799034-2.195902-10.017595-7.717851-13.174037-5.013495 6.730191-10.761917 12.608009-10.408885 22.210517-2.797611 1.709184-3.104015 5.848962-6.621011 7.480456-6.470028-3.631462-4.43621-13.4737-11.061661-17.138457-3.230574 3.613704-4.047653 7.722405-4.647141 11.162971-7.717851-8.290654-5.66405-22.923047-15.96414-30.023931-4.145348-.224192-5.430916 4.958854-10.522122 3.64256-1.074638-7.360591-6.494452-13.378251-8.883522-21.113975-.426303-2.321827 2.830915-3.560431 2.038258-5.913334-.537318-2.605951-2.155936-4.250763-3.543639-6.082032 2.813152-7.722405-1.658583-11.828887-7.120584-15.444811-.781554-4.779057-4.318532-8.581437-4.180872-13.693452-1.08796 2.69474-1.598635 5.424996-2.704357 7.864468-2.309138 5.096477-3.326047 11.029788-8.252949 14.534725-2.65773 4.037671-1.3655 9.744571-5.224426 12.581373.210931 3.587067 3.34159 3.624802 4.354058 4.854527-.599488 2.14203-1.412127 4.035451-2.291376 5.848962-1.680786-6.159723-8.550473-6.130866-11.445777-11.220684.81708-1.327393 2.755424-2.732475 1.576431-4.967733-1.032452-2.435033-3.81896-2.068779-5.406493-3.627022-3.592486-1.835709-5.488644-5.524883-8.521609-8.124175v-5.047643c-2.893084-.978897-4.787021-2.85456-6.14142-5.105356 3.628012-3.995496 8.768065-1.624835 13.497359-3.236351-5.803931-3.189738-11.423575-5.638089-15.473448-10.692391 3.796756-4.370628 9.711703-.741386 12.96448-4.98771-2.753204-4.259643-7.657903-6.938845-9.798296-11.737879 1.356619-2.246357 3.494792-.450603 5.082325-2.095416-3.47703-4.046549-6.014862-8.776772-8.45722-13.305.779334-1.564903 2.415714-2.268554 1.689668-4.144217-2.298037-2.732476-5.568576-4.967733-5.981557-9.964323 3.696842 1.97999 7.198295 3.48718 10.924001 1.413962-4.835869-2.783529-7.09838-7.664693-9.889329-11.933214 2.513408-3.185298 4.593853 2.901174 7.005126-1.007753-3.041845-4.477175-6.243555-9.165223-8.279593-14.594658-2.036039-5.420556-1.043553-11.657969-4.491718-16.863212-4.7737001 10.319478-8.7480826 21.100657-19.3412552 27.01621 2.5489336 1.240824 4.6182769 2.248577 6.8030771 3.309603-3.2083703 4.03545-7.5246829 6.113108-11.1593556 8.850023 2.1026482 4.574842 6.6365527 1.118739 10.4821563 4.062087-2.9663547 2.357343-5.5929997 4.446099-7.5446658 5.997683-.2997439 2.14203.388557 3.351777-1.3233139 4.938877-2.0471401 4.019913-7.1960747 6.006562-10.391123 9.100851-.184287 3.502718 3.9677215 1.98443 3.1706247 5.587035-2.886423 2.523822-6.6809592 4.28406-10.3156319 5.888917-3.0795914-2.332926-3.3660134-6.124207-6.4234015-7.968794 1.4232286-1.065466 1.9694287-2.002188 1.9827506-1.911179-1.3965847-4.053209-5.404272-4.83455-5.1777988-8.725719 2.4245953-.208653 4.4939386 2.914492 6.7164844-.035515-.2309139-2.890076-2.5977808-4.83233-4.5405655-5.444973-2.5578149-.807978-1.7984636-3.367315-3.390437-4.375068-.4063195-.257488-.0954739-.830175.5839456-1.127618 1.4898384-.530513 2.1736986 1.340711 3.5236565 1.276339.5684033-.839054 1.7562774-1.218626 1.7407351-1.624835-7.4602934-6.534855-10.57541-14.65459-12.0119605-25.777606-4.1031614 10.079747-6.2058096 18.980824-12.6403127 25.35586 1.4520929 1.349589 2.4645612 2.29297 3.3171662 3.08541-1.8251075 2.989963-2.7176783 6.49934-6.740908 7.045391 1.2589245 1.220846 1.876175 2.61705 3.4637077 2.77021 1.2389416.117646 2.8597791-.665916 3.2883019 1.436159-4.0076874 6.124207-4.8380891 14.321633-12.5648215 18.670064 2.6377466.55715 4.1919744.885668 6.2413347 1.318513-1.6763457 1.680328-3.0573881 3.067653-4.4450915 4.461637-4.1986353-5.274054-5.2288663-11.848864-7.580191-17.82657.6172505-.892327 1.2300603-1.775776 1.9960726-2.881196-1.207857-1.560463-2.346884-3.032138-3.5169955-4.543767 1.1279253-.488338 2.0782246-.901206 3.0618288-1.327392-2.4001718-2.845681-4.7848013-5.580376-4.8758347-9.538136-.0355252-1.551585-.9014521-1.875664-2.7354409-1.820171-.42852278 3.911147-2.5000864 7.37391-4.203076 10.765642.77267324.965578 1.27668712 1.598198 1.74961643 2.188643-.91921472 1.90452-4.01212804 2.581535-2.79983036 5.62921.92809603-.310761 1.75183676-.588226 3.97660284-1.336271-3.58804589 4.774617-4.15422887 9.706834-7.39590399 13.154059.62391144.728069.99248546 1.156474 1.33885623 1.560464-.82374073 1.89786-4.0343313 2.426153-2.79983036 5.762392 1.12126434 1.001094 3.22613284-.588225 4.22971993 1.169793-1.31443265 2.117612-2.96191411 3.398391-5.52638998 2.350683-.51955615-1.647032-2.52451001-4.881164-4.0609752-6.386134.06660976 5.717998-4.42954922 8.7124-6.59214614 13.045294.9836041.401769 1.96942861.803538 2.92416854 1.191989-.90589277 3.152002-5.48420384 2.255235-6.07925104 5.982145 1.4720758.208654 2.7909491.39733 5.0712233.725849-2.9685751 2.428373-4.2052964 5.325107-5.4908648 8.192986.0177626 57.179983.0355252 114.359967.0532878 171.53995 2.3713076 1.296317-4.8869362 176.263515-3.07071 174.951661l-7.7089699 92.269315c-.0244236-.04661 1367.30526-11.46485 1367.28528-11.75342l123.44343 2.35069c1.88506 1.31185-6.75867-199.759253-4.29633-201.05335.01776-57.179983.03553-114.362187.05329-171.53995-1.33442-2.870098-2.61777-5.766833-5.69958-8.195206 2.36687-.326299 3.73681-.514975 5.26439-.725849-.61725-3.724689-5.37096-2.830142-6.31016-5.979925.99249-.390671 2.01383-.79244 3.03518-1.194209-2.24474-4.332893-6.91187-7.325076-6.84304-13.045294-1.59419 1.50719-3.67464 4.741322-4.2164 6.388354-2.66217 1.045488-4.37182-.233071-5.7351-2.352903 1.04134-1.758018 3.22614-.166479 4.38959-1.169792 1.28334-3.33402-2.04936-3.862313-2.90419-5.762393.35969-.403989.73937-.830175 1.38992-1.558244-3.36601-3.447224-3.9544-8.379442-7.67788-13.154059 2.30914.745825 3.16396 1.02329 4.12758 1.334051 1.25893-3.047675-1.95388-3.72469-2.9064-5.62699.48847-.590445 1.01469-1.223065 1.81622-2.190863-1.76737-3.391732-3.91887-6.854495-4.36294-10.765641-1.90503-.053274-2.80427.270805-2.83979 1.82017-.09326 3.95776-2.56892 6.694675-5.06012 9.538136 1.02135.428406 2.00717.839054 3.17728 1.327393-1.21452 1.511629-2.39795 2.983303-3.65021 4.543766.79487 1.105421 1.43211 1.991089 2.07378 2.883416-2.44236 5.975486-3.51255 12.552516-7.86883 17.824351-1.44321-1.391765-2.87754-2.77909-4.61606-4.461637 2.12707-.432846 3.74125-.761364 6.47891-1.318514-8.02203-4.348431-8.88352-12.543637-13.04219-18.670064.44406-2.102074 2.12707-1.316293 3.41264-1.436158 1.64748-.153161 2.28916-1.549365 3.59693-2.770211-4.17644-.543831-5.10453-4.053208-6.99847-7.045391.88369-.79022 1.93613-1.735821 3.44151-3.08541-6.67652-6.372816-8.86132-15.273893-13.11769-25.35586-1.49206 11.125236-4.72485 19.242751-12.47156 25.777607-.01555.408428 1.21895.78578 1.80734 1.624835 1.40103.064371 2.11375-1.804633 3.65688-1.27412.70606.295223 1.03023.870131.60837 1.127618-1.65415 1.007753-.86371 3.56487-3.52144 4.372848-2.01606.614863-4.47174 2.557117-4.71153 5.447193 2.30692 2.947788 4.45397-.173138 6.97182.033295.23313 3.891169-3.92331 4.674731-5.37541 8.725719.01332-.091008.57951.847933 2.06046 1.913399-3.17506 1.844587-3.47258 5.635869-6.66985 7.968794-3.77234-1.604857-7.71341-3.367315-10.70641-5.888917-.82818-3.604825 3.47925-2.086536 3.29052-5.589254-3.31717-3.09207-8.66149-5.080939-10.78856-9.098632-1.77626-1.5871-1.06132-2.796847-1.37216-4.938877-2.02494-1.551584-4.75372-3.64034-7.83109-5.997683 3.99215-2.943348 8.69701.510536 10.87959-4.064307-3.77233-2.736914-8.25295-4.814572-11.58343-8.847803 2.26695-1.063246 4.41622-2.070999 7.06285-3.311822-10.99505-5.915554-15.12041-16.694513-20.07618-27.016211-3.57917 5.205243-2.54893 11.442656-4.66268 16.865432-2.11375 5.427215-5.43758 10.115263-8.59488 14.592438 2.5023 3.911147 4.66268-2.175325 7.27156 1.009973-2.89752 4.268521-5.24663 9.149685-10.26678 11.933214 3.87002 2.073218 7.50248.566028 11.34142-1.413962-.43074 4.99437-3.8234 7.229628-6.21025 9.964323-.75269 1.875663.94586 2.579314 1.75406 4.141997-2.53339 4.530448-5.16892 9.260671-8.77917 13.30722 1.6497 1.642593 3.87003-.15316 5.27549 2.093196-2.22032 4.799035-7.31375 7.478236-10.16909 11.740099 3.3749 4.244104 9.51632.617082 13.45517 4.98549-4.20307 5.054303-10.03587 7.504873-16.05961 10.694611 4.90914 1.609297 10.24236-.761364 14.01025 3.236351-1.40768 2.248576-3.37267 4.126459-6.37455 5.103136v5.049863c-1.68523 1.389545-3.04407 3.076532-4.50282 4.639214.64833-2.594852 1.31665-5.180826 1.64082-7.902202-2.46234-3.782403-5.16448-7.444941-6.66986-12.354961.97251-1.076564 3.97883-1.10986 4.18088-4.252983-3.70573-2.486087-2.46457-7.484896-5.01794-11.023129-4.73151-3.069873-5.70846-8.268457-7.92656-12.732313-1.06132-2.13759-1.55201-4.528229-2.59778-6.890011.13322 4.479395-3.26388 7.811195-4.01657 11.995366-5.24663 3.16976-9.54074 6.767926-6.8386 13.533632-1.3322 1.602638-2.88865 3.043236-3.40154 5.327328-.76379 2.06212 2.36464 3.145343 1.9561 5.178607-2.29581 6.779024-7.50025 12.050859-8.53271 18.499145-4.89137 1.152034-6.12587-3.389512-10.10692-3.191957-9.89377 6.221874-7.9199 19.038537-15.33356 26.30146-.57729-3.01216-1.36106-6.612545-4.46508-9.777866-6.36345 3.209715-4.40957 11.833327-10.62204 15.014186-3.37933-1.4295-3.67463-5.056522-6.36123-6.552614.33971-8.414958-5.18224-13.562488-9.99812-19.458064-5.30436 2.765771-7.30265 7.336174-7.41367 11.540324-.20649 7.986552-1.38992 15.669002-4.24304 22.938585.60615-6.392793-2.67549-11.879941-6.41674-18.556858-4.36738 6.994337-8.72588 12.592471-10.10026 19.664498-.07771.756924.34415 1.618176.11767 2.230818-3.60802 9.75123-6.30128 19.744409-9.05004 29.726489-.24424.887888-1.51204 1.378446-3.17507.645938-.80376-2.867878 3.80564-3.209715 3.49702-6.528196-.61726-2.781309-4.36738-3.229692-6.76978-5.22744 1.5076-2.337365 5.67515-2.122052 5.84168-6.319543-.05773-2.565996-3.9322-3.116486-5.1667-5.589254-.76601-1.66479.655-3.531574-1.18565-6.033199-4.2497-2.785748-7.00513-7.99765-10.25124-12.796685-.07105-3.036576 4.60495-1.26302 4.59163-4.281839.47071-2.832363-2.49565-3.975519-3.19727-5.07428-1.80068-3.038796 1.19898-4.67695-.56174-7.806755-6.74757-4.470515-8.72588-13.39157-15.22477-22.594528-4.13647 10.295061-10.72196 17.19173-15.47567 25.280389.35969 1.715844 1.48318 2.585974 3.6702 2.69918-2.52007 2.594852-6.62768 3.422808-7.72452 7.04761.31973 2.523822 3.517 2.046582 4.37849 3.618144-.86371 7.706867-10.43553 11.276177-9.44971 19.307123-1.33219 2.281872-3.84338 3.154222-5.03348 5.191925-1.26336 2.69474 1.51649 4.716904 1.40769 6.779024-.30419 2.814605-2.76653 4.210809-3.0152 6.561492-.39522 2.308509 2.46456 3.234132 2.55781 5.520443-.99026 2.552678-2.73544 4.614798-6.18138 6.130867-.9059-6.086472-1.79403-12.008685-5.67071-16.920925-.524-.532733-1.15235-.916744-1.87396-1.167572-7.92212.841273-8.55935 7.693549-9.30094 12.43709-1.58532 10.157438-7.7778 18.772171-8.979 29.440144-4.79812-1.214186-7.11836-3.920025-7.68677-7.884445-1.32775-9.256231-3.59248-18.004147-8.68147-26.336976-3.03296-4.967733-.76601-12.006464-4.45841-17.35377-.38856-.610423-.84595-1.174231-1.33442-1.715843-2.0538-1.891201-3.27276-4.739102-7.32929-5.327328-9.56738 5.360624-7.88216 15.089656-8.93903 24.019589-5.26439 1.524947-9.22101-1.207528-14.39437-3.302943 3.60581-2.996622 8.79693-2.565996 10.86183-6.530416.25978-5.482708-6.46559-5.342866-8.38617-9.089753-.06661-1.97777 1.7474-3.766864 0-7.043171-5.16003-4.297378-13.21093-8.355026-12.7158-18.712238.58616-1.51163 3.89001-1.973331 4.99795-4.690269-.07771-3.622582-4.54723-4.381727-5.91495-7.28734-1.38326-2.468328 1.16567-4.865626.41298-6.557052-1.48983-4.335113-5.08232-5.986585-7.36704-8.694643-6.39231-6.18192-8.64372-14.778895-14.35218-22.34592-6.91187 11.564741-12.167382 23.644456-23.046977 31.000608 1.08796 3.931124 4.138687 3.416149 5.919388 4.330673-2.424596 4.51713-10.773019 4.35731-8.637066 11.475952.279761 1.942255 2.46012 2.530481 3.259437 4.128679-.00222 2.177545-.588386 4.510471 2.118191 6.554833-2.633306 1.893421-3.41042 4.923338-6.501113 6.623644-2.66439 1.465015-4.64048 4.048769-6.865246 6.088691 1.096841 1.855686 2.884203 2.332926 4.620497 2.954447-3.097354 4.457198-8.088645 6.585909-12.602567 9.451568-.308625 2.088756 2.255851 3.092069 2.300257 5.180826h9.41418c1.563109 1.003313.89035 2.368441 1.103502 3.524915-5.732881 4.12202-13.02665 4.747981-19.432288 7.775679 4.305211 2.13759 9.198808.965578 13.09992 3.305162.630572.377353 1.032451 1.094322 1.614176 1.738041-.805978 1.928937-1.720752 3.32958-4.3696 3.48496-3.228353.188676-4.243042 2.423934-3.759011 4.918899-.850385.581567-1.647482 1.198649-2.464561 1.806852-1.170112-2.836802-2.357986-5.678043-3.659097-8.483769-3.705723 4.856747-5.344323 10.279523-7.033991 15.593532-1.885056.907866-3.856705 1.647032-6.054827 1.973331.097694 3.500498 3.219472 1.5871 4.371821 2.794627-.284202.770243-.532878 1.556024-.852605 2.310729-2.560036 1.096541-4.087619 3.531574-6.738688 5.043203-5.246629-2.486086-4.220839-8.348366-7.09394-12.292808-4.209737 2.807945-2.413493 9.020941-7.446971 11.140774.608369.63484.965841 1.007752 1.525363 1.589319-1.072417 1.19199-2.169258 2.412836-2.997439 3.3318-.164304 1.682547 1.047994 2.115393 1.716312 3.309602-2.533392 5.331767-5.173359 10.894385-7.902139 16.63902.879249.723629 1.885057 1.553804 2.850898 2.348464-.983604 1.802412-2.551154 2.517162-4.36738 2.941128.20205 1.611517 1.905039 2.130932 2.699916 3.3318-.686081.954479-1.660804 1.724722-2.466782 2.61483-.761571-1.869004-1.489838-3.744667-2.46012-5.567057-1.900599-3.564871-3.941078-7.167476-1.576431-11.353868-2.087106-10.654655-5.25107-20.872025-11.430236-30.090522-5.608542 2.630368-3.936637 8.830046-7.91546 12.039761-3.918874-.195336-5.042359-3.64922-7.311531-6.929966 4.269685-1.360688 9.218791-.284124 12.14962-5.140871-.543979-7.171915-8.947911-9.706835-11.166016-15.975324.748249-3.438346 4.909139-3.380633 6.769772-6.872253-13.734933-15.187323-20.33374-33.695347-24.245954-52.893704-5.815032.068811-6.361232 3.456104-7.036211 6.466044-3.508114 15.660123-8.292915 30.654331-20.486943 42.112525-1.660803 1.562683-2.846457 3.689174-1.836209 6.403892 2.095988 3.09207 5.362086 2.543799 8.792489 2.397297-2.502307 7.649155-11.241508 10.310599-14.090185 17.662311 2.713238 6.781244 7.919901 4.91224 13.941423 3.436127-11.354744 11.664627-10.482156 28.851918-21.670376 37.147011-1.505381 4.969953 2.697695 5.913334 2.207004 8.821167-2.877542 5.737976-8.075324 9.649122-11.876521 14.203988z" fill="#1d3a2a" fill-rule="evenodd" transform="translate(0 -534)"/></svg>