<svg height="16" viewBox="0 0 18 16" width="18" xmlns="http://www.w3.org/2000/svg"><g style="stroke:#fff;stroke-width:1.5;fill:none;fill-rule:evenodd;stroke-linecap:round;stroke-linejoin:round" transform="translate(1.364768 1.212121)"><path d="m8.484848 11.030303h6.787879"/><path d="m0 11.030303h3.393939"/><path d="m8.48484816 11.0303027c0 1.4056685-1.13940919 2.5452462-2.54507761 2.5454543-1.40566841.0002082-2.54541492-1.139032-2.54583159-2.5447004-.00041623-1.40566834 1.13865505-2.54558365 2.54432334-2.54620889.67529251-.00029963 1.32302951.26774891 1.80063955.74514677.47761004.47739787.74594631 1.12501572.74594631 1.80030822z"/><path d="m10.181818 2.545455h-10.181818"/><path d="m15.2727269 2.54545427c0-1.40566843-1.1394091-2.54524611-2.5450776-2.54545427-1.4056684-.00020815-2.5454149 1.13903203-2.5458315 2.54470039-.0004163 1.40566837 1.138655 2.54558368 2.5443233 2.54620842 1.4059988 0 2.5459612-1.13945583 2.5465858-2.54545454z"/></g></svg>