<svg height="36" viewBox="0 0 36 36" width="36" xmlns="http://www.w3.org/2000/svg"><path d="m34.875 17.6069485c0-9.72405632-7.8350098-17.6069485-17.5-17.6069485-9.66499023 0-17.5 7.88289218-17.5 17.6069485 0 8.7881369 6.39953125 16.0721865 14.765625 17.3930515v-12.303543h-4.4433594v-5.0895085h4.4433594v-3.8790309c0-4.41274143 2.612627-6.85020336 6.6100098-6.85020336 1.9146777 0 3.917334.34388571 3.917334.34388571v4.33295995h-2.206709c-2.1738965 0-2.8518848 1.3571794-2.8518848 2.7495726v3.302816h4.8535156l-.7758789 5.0895085h-4.0776367v12.303543c8.3661621-1.320865 14.765625-8.6049146 14.765625-17.3930515z" fill="#1d3a2a" transform="translate(.359 .228)"/></svg>