<svg height="36" viewBox="0 0 36 36" width="36" xmlns="http://www.w3.org/2000/svg"><path d="m17.5 0c9.6584961 0 17.5 7.84150391 17.5 17.5 0 9.6584961-7.8415039 17.5-17.5 17.5-9.65849609 0-17.5-7.8415039-17.5-17.5 0-9.65849609 7.84150391-17.5 17.5-17.5zm0 6.5625c-2.9704199 0-3.3429102.01257813-4.5095313.06583008-1.1641601.05311523-1.959248.23802734-2.6550097.50838867-.719209.27952148-1.3291797.65351562-1.93723634 1.26157227-.60805664.60805664-.98205079 1.21802734-1.26157227 1.93723628-.27036133.6956934-.45520508 1.4907813-.50838867 2.6549414-.05318359 1.1666211-.06576172 1.5391114-.06576172 4.5095313s.01257813 3.3429102.06576172 4.5095313c.05318359 1.1641601.23802734 1.959248.50838867 2.6549414.27952148.7192089.65351563 1.3291796 1.26157227 1.9373046.60805664.6080567 1.21802734.9820508 1.93723634 1.2615723.6957617.270293 1.4908496.4552051 2.6550097.5083203 1.1666211.053252 1.5391114.0658301 4.5095313.0658301s3.3429102-.0125781 4.5095313-.0658301c1.1641601-.0531152 1.959248-.2380273 2.6549414-.5083203.7192089-.2795215 1.3291796-.6535156 1.9373046-1.2615723.6080567-.608125.9820508-1.2180957 1.2615723-1.9373046.270293-.6956934.4552051-1.4907813.5083203-2.6549414.053252-1.1666211.0658301-1.5391114.0658301-4.5095313s-.0125781-3.3429102-.0658301-4.5095313c-.0531152-1.1641601-.2380273-1.959248-.5083203-2.6549414-.2795215-.71920894-.6535156-1.32917964-1.2615723-1.93723628-.608125-.60805665-1.2180957-.98205079-1.9373046-1.26157227-.6956934-.27036133-1.4907813-.45527344-2.6549414-.50838867-1.1666211-.05325195-1.5391114-.06583008-4.5095313-.06583008zm0 1.97073242c2.9204492 0 3.2663477.01114258 4.419707.0637793 1.0664063.04867187 1.6454785.22681641 2.0308887.3765918.5105762.1983789.8749316.43544921 1.2576074.81819335.3828125.38267583.6198145.74709963.8181934 1.25760743.1497754.3854102.3279883.9644824.3765918 2.0308887.0526367 1.1533593.0637793 1.4992578.0637793 4.419707s-.0111426 3.2663477-.0637793 4.419707c-.0486035 1.0664063-.2268164 1.6454785-.3765918 2.0308887-.1983789.5105762-.4353809.8749316-.8181934 1.2576074-.3826758.3828125-.7470312.6198145-1.2576074.8181934-.3854102.1497754-.9644824.3279883-2.0308887.3765918-1.1531543.0526367-1.4990527.0637793-4.419707.0637793s-3.2664844-.0111426-4.419707-.0637793c-1.0664063-.0486035-1.6454785-.2268164-2.0308887-.3765918-.5105762-.1983789-.8749316-.4353809-1.25767578-.8181934-.38274414-.3826758-.6197461-.7470312-.818125-1.2576074-.14977539-.3854102-.32798829-.9644824-.37666016-2.0308887-.05263672-1.1533593-.06371094-1.4992578-.06371094-4.419707s.01107422-3.2663477.06371094-4.419707c.04867187-1.0664063.22688477-1.6454785.37666016-2.0308887.1983789-.5105078.43538086-.8749316.818125-1.25760743.38274418-.38274414.74709958-.61981445 1.25767578-.81819335.3854102-.14977539.9644824-.32791993 2.0308887-.3765918 1.1533593-.05263672 1.4992578-.0637793 4.419707-.0637793zm0 3.35022458c-3.1019434 0-5.616543 2.5145996-5.616543 5.616543s2.5145996 5.616543 5.616543 5.616543 5.616543-2.5145996 5.616543-5.616543-2.5145996-5.616543-5.616543-5.616543zm0 9.2623535c-2.0135254 0-3.6458105-1.6322851-3.6458105-3.6458105s1.6322851-3.6458105 3.6458105-3.6458105 3.6458105 1.6322851 3.6458105 3.6458105-1.6322851 3.6458105-3.6458105 3.6458105zm7.1510059-9.484248c0 .7248828-.5876856 1.3124316-1.3125684 1.3124316-.7248145 0-1.3124316-.5875488-1.3124316-1.3124316s.5876171-1.3125 1.3124316-1.3125c.7248828 0 1.3125684.5876172 1.3125684 1.3125z" fill="#1d3a2a" fill-rule="evenodd" transform="translate(.234 .228)"/></svg>