<svg width="24" height="16" viewBox="0 0 24 16" xmlns="http://www.w3.org/2000/svg"><path d="M951.292893,1467.29289 C951.683418,1466.90237 952.316582,1466.90237 952.707107,1467.29289 L952.707107,1467.29289 L959.666319,1474.25114 C959.77019,1474.34478 959.852685,1474.45925 959.909901,1474.58512 C959.916367,1474.5987 959.922338,1474.61264 959.927979,1474.62668 C959.935983,1474.64724 959.943555,1474.66793 959.95046,1474.68884 C959.95451,1474.70087 959.958194,1474.71293 959.961645,1474.72504 C960.046905,1475.0188 960.00154,1475.35207 959.783225,1475.62253 L959.707107,1475.70711 L952.707107,1482.70711 C952.316582,1483.09763 951.683418,1483.09763 951.292893,1482.70711 C950.932409,1482.34662 950.90468,1481.77939 951.209705,1481.3871 L951.292893,1481.29289 L956.584,1476 L937,1476 C936.487164,1476 936.064493,1475.61396 936.006728,1475.11662 L936,1475 C936,1474.48716 936.38604,1474.06449 936.883379,1474.00673 L937,1474 L956.585,1474 L951.292893,1468.70711 L951.209705,1468.6129 C950.90468,1468.22061 950.932409,1467.65338 951.292893,1467.29289 Z" transform="translate(-936 -1467)" fill="#FFF" fill-rule="evenodd"/></svg>