<svg height="16" viewBox="0 0 24 16" width="24" xmlns="http://www.w3.org/2000/svg"><path d="m15.292893.29289c.390525-.39052 1.023689-.39052 1.414214 0l6.959212 6.95825c.103871.09364.186366.20811.243582.33398.006466.01358.012437.02752.018078.04156.008004.02056.015576.04125.022481.06216.00405.01203.007734.02409.011185.0362.08526.29376.039895.62703-.17842.89749l-.076118.08458-7 7c-.390525.39052-1.023689.39052-1.414214 0-.360484-.36049-.388213-.92772-.083188-1.32001l.083188-.09421 5.291107-5.29289h-19.584c-.512836 0-.935507-.38604-.993272-.88338l-.006728-.11662c0-.51284.38604-.93551.883379-.99327l.116621-.00673h19.585l-5.292107-5.29289-.083188-.09421c-.305025-.39229-.277296-.95952.083188-1.32001z" fill="#1d3a2a" fill-rule="evenodd"/></svg>