<?xml version="1.0" encoding="utf-8"?>
<!-- Generator: Adobe Illustrator 27.0.1, SVG Export Plug-In . SVG Version: 6.00 Build 0)  -->
<svg version="1.1" id="Bruna_ikoner" xmlns="http://www.w3.org/2000/svg" xmlns:xlink="http://www.w3.org/1999/xlink" x="0px"
	 y="0px" viewBox="0 0 1245 1161.2" style="enable-background:new 0 0 1245 1161.2;" xml:space="preserve">
<style type="text/css">
	.st0{fill:none;stroke:#3E2B2F;stroke-width:33.7359;stroke-linecap:round;stroke-linejoin:round;stroke-miterlimit:10;}
</style>
<g>
	<path class="st0" d="M143.5,1109c15.3,0,29.9,0.2,44.7,0.5c-0.9-38.6,1.2-76.4,6.2-112.2c4.9-35.1,23.6-61.8,51.4-73.3
		c27.7-11.5,59.6-5.8,87.7,15.4c14.9,11.3,28.8,23.4,42.2,35.2c2.7,2.4,5.4,4.8,8.2,7.1c85.7,74.4,172.6,109.5,266,107.1
		c125.6-3.2,237.2-47.6,331.7-131.8c114.8-102.3,177.3-226.5,191.2-379.6c5.5-60.1,2.4-113.4-9.4-162.9
		c-12.6-53-34.7-100.3-67.7-144.6c-51.1-68.7-118.4-109.9-189.5-116c-33.9-2.9-68,2-101.3,14.6c-34.8,13.2-68,34.6-98.5,63.5
		c-6.2,5.8-22.5,21.3-43.7,15.3c-21.3-6.1-27-27.9-28.9-35c-6.3-23.7-5.9-46.5-5.6-66.7c0.1-9.9,0.3-19.2-0.4-27.6l-0.1-1.2v-1.2
		c0-8.5,0-16.8,0-24.8c0-17.8,0.1-34.6-0.1-51.3c0-0.3,0-0.5,0-0.8c-0.3,0-0.6,0-0.9,0c-34.9,0.7-65.7,0.7-93.9-0.1
		c-0.1,0-0.1,0-0.2,0c0,0.3,0,0.7-0.1,1c-5.9,148.9,14.5,258.5,65.9,355.6C652.2,496.9,648,608.2,586,717
		c-38.1,66.9-101.4,103.9-183,107.1c-45.4,1.8-89.5-4.6-126.7-11.1c-45.6-7.9-85.8-1.1-116.5,19.8c-30.5,20.7-50.8,55-58.9,99.1
		c-9,49.4-8.3,99.3-7.5,152.2c0.1,8.5,0.2,16.9,0.3,25.4C111.4,1109.2,127.8,1109,143.5,1109z"/>
	<path class="st0" d="M970.1,316.6c0,0,173,215.3,1.6,451.6"/>
</g>
</svg>
